<?xml version="1.0" encoding="UTF-8"?><svg id="Layer_1" xmlns="http://www.w3.org/2000/svg" xmlns:xlink="http://www.w3.org/1999/xlink" viewBox="0 0 269.9 317.21"><defs><style>.cls-1{fill:#ff9d00;}.cls-2{clip-path:url(#clippath-20);}.cls-3{fill:#e5a900;}.cls-4{clip-path:url(#clippath-11);}.cls-5{clip-path:url(#clippath-16);}.cls-6{fill:#fff;}.cls-7{mask:url(#mask-10);}.cls-8{clip-path:url(#clippath-33);}.cls-9{clip-path:url(#clippath-41);}.cls-10{clip-path:url(#clippath-32);}.cls-11{mask:url(#mask-2);}.cls-12{clip-path:url(#clippath-2);}.cls-13{clip-path:url(#clippath-13);}.cls-14{fill:rgba(255,255,255,.7);}.cls-15{clip-path:url(#clippath-37);}.cls-16{clip-path:url(#clippath-25);}.cls-17{fill:#f92323;}.cls-18{mask:url(#mask-13);}.cls-19{clip-path:url(#clippath-15);}.cls-20{fill:#d73c2c;}.cls-21{clip-path:url(#clippath-6);}.cls-22{mask:url(#mask-3);}.cls-23{clip-path:url(#clippath-40);}.cls-24{clip-path:url(#clippath-26);}.cls-25{clip-path:url(#clippath-7);}.cls-26{clip-path:url(#clippath-21);}.cls-27{mask:url(#mask-9);}.cls-28{clip-path:url(#clippath-34);}.cls-29{clip-path:url(#clippath-1);}.cls-30{clip-path:url(#clippath-4);}.cls-31{clip-path:url(#clippath-38);}.cls-32{mask:url(#mask-12);}.cls-33{clip-path:url(#clippath-36);}.cls-34{clip-path:url(#clippath-27);}.cls-35{fill:rgba(17,26,40,.35);}.cls-36{mask:url(#mask-5);}.cls-37{clip-path:url(#clippath-12);}.cls-38{fill:#ee346a;}.cls-39{fill:rgba(55,26,69,.42);}.cls-40{clip-path:url(#clippath-24);}.cls-41{clip-path:url(#clippath-30);}.cls-42{fill:#293856;}.cls-43{mask:url(#mask-8);}.cls-44{clip-path:url(#clippath-22);}.cls-45{mask:url(#mask-4);}.cls-46{fill:#22a7f0;}.cls-47{clip-path:url(#clippath-9);}.cls-48{fill:#db2c2c;}.cls-49{clip-path:url(#clippath);}.cls-50{clip-path:url(#clippath-39);}.cls-51{fill:none;}.cls-52{clip-path:url(#clippath-19);}.cls-53{clip-path:url(#clippath-31);}.cls-54{mask:url(#mask-6);}.cls-55{clip-path:url(#clippath-3);}.cls-56{clip-path:url(#clippath-8);}.cls-57{fill:#371a45;}.cls-58{mask:url(#mask-1);}.cls-59{mask:url(#mask);}.cls-60{clip-path:url(#clippath-29);}.cls-61{clip-path:url(#clippath-18);}.cls-62{clip-path:url(#clippath-14);}.cls-63{clip-path:url(#clippath-17);}.cls-64{clip-path:url(#clippath-5);}.cls-65{mask:url(#mask-7);}.cls-66{clip-path:url(#clippath-10);}.cls-67{fill:rgba(55,26,69,.35);}.cls-68{clip-path:url(#clippath-23);}.cls-69{mask:url(#mask-11);}.cls-70{clip-path:url(#clippath-28);}.cls-71{fill:#ff0;}.cls-72{clip-path:url(#clippath-35);}</style><clipPath id="clippath"><rect class="cls-51" x="87.67" y="192.8" width="53.33" height="43.26"/></clipPath><mask id="mask" x="-164.99" y="-141.2" width="600" height="600" maskUnits="userSpaceOnUse"/><clipPath id="clippath-1"><rect class="cls-51" x="89.01" y="194.13" width="9.33" height="5.33"/></clipPath><clipPath id="clippath-2"><rect class="cls-51" x="90.34" y="194.56" width="7.15" height="3.57"/></clipPath><clipPath id="clippath-3"><rect class="cls-51" x="89.81" y="194.56" width="7.68" height="3.84"/></clipPath><mask id="mask-1" x="-164.99" y="-141.2" width="600" height="600" maskUnits="userSpaceOnUse"/><clipPath id="clippath-4"><rect class="cls-51" x="78.34" y="184.8" width="13.33" height="14.67"/></clipPath><clipPath id="clippath-5"><rect class="cls-51" x="79.67" y="186.13" width="11.73" height="12.91"/></clipPath><clipPath id="clippath-6"><rect class="cls-51" x="79.25" y="185.6" width="12.16" height="13.44"/></clipPath><clipPath id="clippath-7"><rect class="cls-51" x="77.01" y="123.47" width="179.81" height="80"/></clipPath><mask id="mask-2" x="-164.99" y="-141.2" width="600" height="600" maskUnits="userSpaceOnUse"/><clipPath id="clippath-8"><rect class="cls-51" x="77.01" y="163.47" width="14.67" height="34.67"/></clipPath><clipPath id="clippath-9"><rect class="cls-51" x="77.01" y="164.16" width="14.08" height="32.64"/></clipPath><clipPath id="clippath-10"><rect class="cls-51" x="77.01" y="164.16" width="14.08" height="32.96"/></clipPath><mask id="mask-3" x="-164.99" y="-141.2" width="600" height="600" maskUnits="userSpaceOnUse"/><clipPath id="clippath-11"><rect class="cls-51" x="121.01" y="124.8" width="90.67" height="37.33"/></clipPath><clipPath id="clippath-12"><rect class="cls-51" x="121.49" y="125.12" width="89.92" height="35.68"/></clipPath><clipPath id="clippath-13"><rect class="cls-51" x="121.49" y="125.12" width="89.92" height="35.84"/></clipPath><mask id="mask-4" x="-164.99" y="-141.2" width="600" height="600" maskUnits="userSpaceOnUse"/><clipPath id="clippath-14"><rect class="cls-51" x="119.67" y="107.47" width="2.67" height="8"/></clipPath><clipPath id="clippath-15"><rect class="cls-51" x="120.2" y="108.8" width="1.92" height="5.33"/></clipPath><clipPath id="clippath-16"><rect class="cls-51" x="120.2" y="107.52" width="1.92" height="6.72"/></clipPath><mask id="mask-5" x="-164.99" y="-141.2" width="600" height="600" maskUnits="userSpaceOnUse"/><clipPath id="clippath-17"><rect class="cls-51" x="119.67" y="112.8" width="2.67" height="4"/></clipPath><clipPath id="clippath-18"><rect class="cls-51" x="120.2" y="113.6" width=".8" height=".53"/></clipPath><clipPath id="clippath-19"><rect class="cls-51" x="120.2" y="113.6" width=".8" height="1.86"/></clipPath><mask id="mask-6" x="-164.99" y="-141.2" width="600" height="600" maskUnits="userSpaceOnUse"/><clipPath id="clippath-20"><rect class="cls-51" x="118.34" y="20.8" width="81.33" height="72"/></clipPath><clipPath id="clippath-21"><rect class="cls-51" x="118.93" y="22.13" width="80.32" height="69.71"/></clipPath><clipPath id="clippath-22"><rect class="cls-51" x="118.93" y="21.44" width="80.32" height="70.4"/></clipPath><mask id="mask-7" x="-164.99" y="-141.2" width="600" height="600" maskUnits="userSpaceOnUse"/><clipPath id="clippath-23"><rect class="cls-51" x="135.67" y="66.13" width="54.67" height="24"/></clipPath><clipPath id="clippath-24"><rect class="cls-51" x="136.53" y="66.24" width="52.48" height="22.56"/></clipPath><clipPath id="clippath-25"><rect class="cls-51" x="136.53" y="66.24" width="52.8" height="22.56"/></clipPath><mask id="mask-8" x="-164.99" y="-141.2" width="600" height="600" maskUnits="userSpaceOnUse"/><clipPath id="clippath-26"><rect class="cls-51" x="151.67" y="103.47" width="25.33" height="20"/></clipPath><clipPath id="clippath-27"><rect class="cls-51" x="152.2" y="104.8" width="24.32" height="18.08"/></clipPath><clipPath id="clippath-28"><rect class="cls-51" x="152.2" y="103.68" width="24.32" height="19.2"/></clipPath><mask id="mask-9" x="-164.99" y="-141.2" width="600" height="600" maskUnits="userSpaceOnUse"/><clipPath id="clippath-29"><rect class="cls-51" x="145.01" y="111.47" width="8" height="12"/></clipPath><clipPath id="clippath-30"><rect class="cls-51" x="146.34" y="111.68" width="6.51" height="10.88"/></clipPath><clipPath id="clippath-31"><rect class="cls-51" x="146.13" y="111.68" width="6.72" height="10.88"/></clipPath><mask id="mask-10" x="-164.99" y="-141.2" width="600" height="600" maskUnits="userSpaceOnUse"/><clipPath id="clippath-32"><rect class="cls-51" x="134.34" y="62.13" width="56" height="28"/></clipPath><clipPath id="clippath-33"><rect class="cls-51" x="135.67" y="62.72" width="53.33" height="26.08"/></clipPath><clipPath id="clippath-34"><rect class="cls-51" x="135.25" y="62.72" width="54.08" height="26.08"/></clipPath><mask id="mask-11" x="-164.99" y="-141.2" width="600" height="600" maskUnits="userSpaceOnUse"/><clipPath id="clippath-35"><rect class="cls-51" x="118.34" y="56.8" width="21.33" height="17.33"/></clipPath><clipPath id="clippath-36"><rect class="cls-51" x="119.67" y="58.13" width="19.41" height="15.79"/></clipPath><mask id="mask-12" x="-164.99" y="-141.2" width="600" height="600" maskUnits="userSpaceOnUse"/><clipPath id="clippath-37"><rect class="cls-51" x="146.34" y="43.47" width="14.67" height="14.67"/></clipPath><clipPath id="clippath-38"><rect class="cls-51" x="147.67" y="43.52" width="12" height="14.4"/></clipPath><mask id="mask-13" x="-164.99" y="-141.2" width="600" height="600" maskUnits="userSpaceOnUse"/><clipPath id="clippath-39"><rect class="cls-51" x="149.01" y="60.8" width="8" height="8"/></clipPath><clipPath id="clippath-40"><rect class="cls-51" x="150.34" y="60.8" width="6.35" height="6.67"/></clipPath><clipPath id="clippath-41"><rect class="cls-51" x="238.45" y="209.45" width="19" height="19"/></clipPath></defs><path class="cls-20" d="M57.05,166.9c11.71-2.84,23.29,3.46,25.86,14.07,2.58,10.6-4.82,21.52-16.53,24.36-9.38,2.28-38.77-2.83-50.1-4.95-1.84-.35-2.47-2.67-1.04-3.89,8.88-7.65,32.41-27.32,41.81-29.59Z"/><path class="cls-57" d="M59.77,206.09c-12.44,0-33.68-3.68-43.52-5.53-.92-.18-1.65-.84-1.9-1.75-.25-.91,.04-1.85,.76-2.46,9.47-8.16,32.53-27.35,41.89-29.63,11.79-2.86,23.49,3.52,26.08,14.21,2.6,10.7-4.88,21.72-16.67,24.58-1.67,.4-3.95,.57-6.65,.57Zm-2.68-39.02c-9.28,2.25-32.28,21.41-41.74,29.55-.6,.52-.85,1.32-.65,2.08,.2,.77,.82,1.34,1.6,1.49,11.95,2.24,40.76,7.21,50.03,4.96,11.58-2.82,18.95-13.64,16.4-24.13-2.54-10.51-14.04-16.76-25.64-13.95Z"/><path class="cls-3" d="M63.21,171.29c8.09-1.96,16.09,2.39,17.86,9.72,1.78,7.33-3.33,14.86-11.42,16.83-5.93,1.44-23.79-1.8-32.88-3.63-2.2-.44-2.88-3.24-1.13-4.64,7.23-5.79,21.62-16.84,27.55-18.29Z"/><path class="cls-71" d="M69.45,175.47c5.02-1.22,9.99,1.49,11.09,6.04,1.11,4.55-2.07,9.23-7.09,10.45-3.26,.79-12.33-.69-18.28-1.83-2.22-.42-2.9-3.27-1.13-4.66,4.77-3.74,12.15-9.2,15.41-10Z"/><path class="cls-57" d="M58.47,206.58c-12.82,0-32.74-2.98-42.26-4.55-1.44-.23-2.59-1.26-2.99-2.66-.41-1.41,.03-2.88,1.13-3.84,9.33-8.2,32.04-27.56,41.42-30.25,5.9-1.69,12.05-1.19,17.32,1.4,5.31,2.61,9.09,7.04,10.66,12.47,1.56,5.42,.69,11.18-2.43,16.21-3.09,4.99-8.05,8.68-13.95,10.37-2.1,.59-5.2,.84-8.89,.84Zm-2.02-38.87c-9.13,2.63-33.27,23.41-40.44,29.72-.54,.47-.42,1.07-.36,1.25s.27,.76,.97,.87c9.43,1.54,40.92,6.38,50.05,3.76,5.3-1.52,9.73-4.81,12.51-9.27,2.73-4.42,3.5-9.46,2.14-14.19-1.35-4.73-4.67-8.6-9.34-10.89-4.71-2.33-10.23-2.77-15.53-1.25Z"/><path class="cls-17" d="M138.12,201.91c-.82,3.07-3.07,8.4-9.23,14.27-6.58,6.25-17.63,13.1-36.16,18.44-2.34,.68-4.16-2.09-2.58-3.96,4.3-5.11,9.95-12.88,12.79-21.15,1.31-3.82,2.02-7.76,1.72-11.58-.13-1.57,1.21-2.88,2.78-2.68l28.6,3.59c1.47,.19,2.46,1.63,2.08,3.07Z"/><path class="cls-67" d="M138.12,201.91c-.82,3.07-1.14,2.88-5.39,9.65-6.7,1.62-20.06,.87-29.8-2.05,1.31-3.83,2.02-7.76,1.72-11.58-.13-1.58,1.21-2.88,2.78-2.69l28.6,3.6c1.47,.19,2.46,1.63,2.08,3.07Z"/><g class="cls-49"><path class="cls-57" d="M91.78,236.06c-1.21,0-2.34-.6-3.03-1.68-.9-1.38-.79-3.09,.28-4.35,6.46-7.65,16.88-22.36,13.92-34.91l-.42-1.77,37.34,4.69v1.13c-.01,.24-.15,6.11-6.15,13.62-7.85,9.82-21.62,17.59-40.9,23.11-.35,.11-.7,.16-1.04,.16Zm13.96-39.76c1.95,13.18-8.3,27.68-14.79,35.35-.49,.59-.19,1.18-.08,1.34,.1,.17,.51,.69,1.26,.48,23.2-6.63,34.26-15.66,39.46-22.06,4.07-5.02,5.26-9.24,5.6-11.17l-31.45-3.95Z"/></g><path class="cls-17" d="M125.79,140.79c-.15,.63-.56,1.21-1.17,1.57l-24.97,14.43c-1.37,.79-3.1,.11-3.59-1.4-3.09-9.35-12.59-16.73-20.71-21.56-1.9-1.13-3.73-2.13-5.38-2.96-2.18-1.12-1.58-4.37,.85-4.66,37.07-4.4,50.48,7.32,54.53,12.53,.48,.61,.61,1.38,.44,2.06Z"/><path class="cls-57" d="M98.42,157.3c-.32,0-.64-.05-.94-.18-.76-.29-1.35-.91-1.6-1.68-3.13-9.46-12.94-16.9-20.63-21.47-1.71-1.02-3.51-2.02-5.36-2.96-1.06-.54-1.61-1.66-1.4-2.82,.21-1.18,1.11-2.04,2.31-2.18,37.13-4.41,50.61,7.34,54.69,12.6,.49,.63,.66,1.44,.47,2.23-.17,.71-.63,1.32-1.26,1.68l-24.97,14.42c-.41,.23-.85,.35-1.32,.35Zm-12.19-31.89c-4.61,0-9.71,.29-15.39,.96-1.03,.13-1.81,.86-1.99,1.88-.18,1.01,.29,1.96,1.2,2.43,1.86,.95,3.67,1.95,5.39,2.97,7.74,4.6,17.63,12.1,20.79,21.67,.22,.67,.73,1.2,1.38,1.45,.64,.25,1.35,.19,1.94-.16l24.97-14.43c.54-.31,.94-.84,1.08-1.44,.17-.67,.02-1.38-.41-1.91-3.41-4.4-13.54-13.43-38.96-13.43Z"/><path class="cls-14" d="M125.79,140.79c-20.71-14.8-47.15-11.11-49.54-10.68-2.3,.43-1.61,2.43-.91,3.7-1.9-1.14-3.73-2.13-5.38-2.97-2.18-1.11-1.58-4.36,.85-4.66,37.07-4.4,50.48,7.31,54.53,12.53,.48,.62,.61,1.38,.44,2.07Z"/><path class="cls-57" d="M95.87,160.42l-.3-1.79c-2.15-12.7-17.45-22.22-26.39-26.76-1.46-.74-2.22-2.28-1.94-3.9,.29-1.62,1.53-2.8,3.16-2.99,19.91-2.4,35.61-.57,46.67,5.42,8.44,4.58,10.84,9.94,10.94,10.17l.45,1.04-32.59,18.82Zm-9.76-33.93c-4.59,0-9.7,.29-15.4,.98-.77,.09-.94,.73-.97,.93-.04,.2-.09,.86,.59,1.21,8.95,4.55,24.04,13.95,27.36,26.84l27.45-15.85c-1.06-1.64-3.8-5.07-9.51-8.11-5.54-2.96-14.82-5.99-29.52-5.99Z"/><path class="cls-6" d="M223.37,175.35c-13.33,8.83-30.41,17.13-49.92,21.45-11.94,2.65-23.53,4.25-34.28,4.89-3.38,.2-6.66,.3-9.85,.32-3.45,.01-6.79-.08-9.98-.28-3.56-.22-6.95-.58-10.15-1.06-4.44-.68-8.52-1.59-12.15-2.73-1.52-.48-2.95-.99-4.3-1.55-.77-.31-1.51-.64-2.21-.97-6.82-3.23-11.22-7.6-12.42-13.01-1.19-5.4,.94-11.22,5.76-17.04,1.42-1.71,3.07-3.43,4.94-5.13,.9-.82,1.86-1.65,2.86-2.46,2.1-1.71,4.4-3.4,6.91-5.06,2.7-1.79,5.63-3.54,8.75-5.24,2.82-1.53,5.8-3.03,8.93-4.48,2.57-1.19,5.22-2.34,7.98-3.45,.35-.14,.71-.28,1.07-.42,10.02-3.96,21.19-7.41,33.14-10.05,19.51-4.32,38.47-4.08,54.29-1.73,.27,.04,.55,.08,.82,.13,23.07,3.53,39.23,11.49,40.23,16.01,.97,4.38-10.58,18.74-30.41,31.88Z"/><path class="cls-57" d="M128.7,202.19c-3.21,0-6.36-.1-9.38-.28-3.53-.22-6.95-.58-10.17-1.06-4.46-.68-8.56-1.59-12.18-2.74-1.51-.47-2.96-.99-4.32-1.55-.74-.3-1.49-.63-2.22-.97-7.13-3.39-11.33-7.8-12.52-13.14-1.19-5.33,.77-11.12,5.8-17.2,1.43-1.72,3.1-3.46,4.96-5.15,.86-.8,1.83-1.63,2.86-2.47,2.09-1.71,4.42-3.42,6.92-5.07,2.71-1.79,5.66-3.56,8.77-5.25,2.82-1.54,5.83-3.05,8.94-4.48,2.6-1.2,5.3-2.36,7.98-3.45,.35-.14,.72-.28,1.07-.43,10.34-4.09,21.49-7.47,33.17-10.06,21.89-4.85,41.64-3.62,54.35-1.73,.28,.04,.56,.08,.83,.13,22.45,3.44,39.31,11.27,40.39,16.16,.96,4.32-10.18,18.61-30.5,32.07-10.76,7.13-28.15,16.64-49.98,21.48-11.68,2.58-23.23,4.23-34.31,4.89-3.32,.2-6.64,.3-9.86,.32-.2-.02-.4-.02-.6-.02Zm61.38-76.33c-9.51,0-20.27,.88-31.6,3.39-11.65,2.58-22.79,5.96-33.11,10.04-.36,.14-.72,.28-1.07,.43-2.69,1.08-5.38,2.24-7.97,3.44-3.1,1.43-6.09,2.93-8.92,4.47-3.1,1.69-6.04,3.45-8.74,5.23-2.49,1.65-4.81,3.34-6.89,5.05-1.03,.83-1.98,1.66-2.85,2.45-1.85,1.67-3.51,3.39-4.92,5.11-4.95,5.97-6.88,11.66-5.72,16.88,1.15,5.22,5.3,9.56,12.32,12.88,.72,.34,1.46,.66,2.2,.96,1.35,.56,2.8,1.07,4.3,1.54,3.59,1.13,7.68,2.05,12.13,2.73,3.2,.47,6.61,.83,10.13,1.05,3.2,.2,6.55,.3,9.97,.28,3.22,0,6.52-.11,9.83-.32,11.06-.66,22.58-2.29,34.26-4.88,21.77-4.82,39.13-14.31,49.85-21.43,20.18-13.39,31.28-27.47,30.34-31.69-.93-4.21-16.64-12.28-40.09-15.87-.27-.04-.55-.09-.82-.13-6.1-.89-13.82-1.64-22.62-1.64Z"/><g class="cls-59"><g class="cls-29"><g><g class="cls-12"><path d="M97.16,197.45c-.04,.16-.08,.32-.13,.48-1.52-.48-2.95-.99-4.3-1.55-.72-.29-1.42-.6-2.09-.91l.71-.29v-.02c1.78,.84,3.72,1.6,5.81,2.28Z"/></g><g class="cls-55"><path class="cls-57" d="M97.17,198.16l-.19-.06c-1.51-.47-2.96-.99-4.32-1.55-.73-.3-1.44-.61-2.09-.92l-.38-.18,.95-.39-.04-.2,.33,.14c1.78,.84,3.72,1.6,5.8,2.28l.16,.06-.04,.17c-.04,.16-.08,.32-.13,.48l-.05,.18Zm-6.06-2.68c.54,.25,1.1,.49,1.69,.73,1.3,.53,2.68,1.03,4.11,1.48,.01-.03,.02-.08,.03-.11-1.98-.66-3.86-1.39-5.57-2.19l-.26,.09Z"/></g></g></g></g><path class="cls-67" d="M224.17,174.96c-13.32,8.85-30.39,17.16-49.89,21.51-11.94,2.66-23.53,4.28-34.28,4.92-3.36,.2-6.65,.31-9.84,.33-3.45,.02-6.79-.08-9.98-.28-3.56-.22-6.94-.57-10.15-1.04-4.74-.71-9.05-1.69-12.87-2.94-2.09-.68-4.03-1.45-5.81-2.29v.02l-.71,.28c-4.89-2.3-8.55-5.17-10.68-8.59-.89-1.4-1.51-2.9-1.86-4.47-1.19-5.4,.94-11.22,5.76-17.04,1.42-1.71,3.08-3.43,4.94-5.13,3.38,4.14,6.33,10.44,7.96,17.79,.24,1.09,.45,2.16,.62,3.22,.49,3.07,2.9,5.51,5.98,5.96,27.51,4.04,51.8,2,72.42-2.92,1.35-.33,1.46-2.21,.15-2.69-6.45-2.39-11.62-7.92-13.22-15.15-2.53-11.32,4.61-22.56,15.94-25.09,11.33-2.52,22.57,4.61,25.09,15.95,1.31,5.9,.01,11.77-3.15,16.4-.77,1.15,.43,2.6,1.71,2.08,7.39-2.99,14.05-6.25,19.94-9.51,21-11.61,32.32-23.24,32.32-23.24,.97,4.36-10.58,18.74-30.39,31.91Z"/><g class="cls-58"><g class="cls-30"><g><g class="cls-64"><path d="M90.64,195.47l-8.04,3.26-2.64-11.85c2.13,3.39,5.73,6.24,10.56,8.54,.04,.03,.09,.04,.12,.06Z"/></g><g class="cls-21"><path class="cls-57" d="M82.46,198.99l-2.92-13.13,.57,.92c2.06,3.29,5.59,6.15,10.49,8.46l.5,.24-8.64,3.5Zm-2.11-11.19l2.38,10.67,7.45-3.02c-4.42-2.13-7.72-4.7-9.83-7.65Z"/></g></g></g></g><path class="cls-17" d="M254.66,144.15c-.02,.1-.06,.19-.08,.29-.05,.19-.11,.38-.19,.58-.04,.11-.08,.21-.13,.32-.3,.76-.73,1.59-1.29,2.52-.08,.14-.16,.27-.25,.4-.58,.94-1.29,1.96-2.13,3.03-.11,.15-.24,.31-.36,.47-.28,.36-.57,.72-.88,1.09-.14,.16-.28,.33-.42,.49-.85,1.01-1.8,2.06-2.82,3.15-.15,.16-.3,.32-.46,.48-.96,1-1.99,2.03-3.09,3.06-.2,.19-.39,.38-.59,.56-1.1,1.03-2.27,2.08-3.5,3.14-.22,.2-.45,.39-.68,.58-2.76,2.35-5.81,4.75-9.14,7.13-.28,.2-.56,.4-.84,.59-.57,.4-1.14,.8-1.71,1.2-.29,.19-.57,.4-.86,.59-.09,.06-.18,.12-.26,.18,.04-2.82-.21-6.01-.56-9.09-.33-2.81-.76-5.55-1.15-7.83-.02-8.3-2.06-16.52-6.01-23.91l-1.13-2.11-2.47-4.64c22.13,3.24,38.08,10.58,40.74,15.25,.09,.17,.18,.34,.23,.49,.05,.11,.08,.23,.11,.35,.1,.45,.07,1-.08,1.65Z"/><path class="cls-57" d="M224.8,174.36v-.35c.03-2.52-.16-5.57-.57-9.08-.28-2.45-.67-5.08-1.14-7.82-.02-8.31-2.09-16.55-5.99-23.85l-3.77-7.07,.36,.05c21.65,3.17,38.07,10.43,40.88,15.34,.09,.17,.18,.34,.24,.52,.05,.13,.09,.25,.11,.37,.11,.47,.07,1.05-.09,1.72-.02,.09-.04,.18-.07,.27-.06,.22-.13,.43-.2,.63-.03,.07-.06,.14-.08,.21l-.04,.1c-.31,.77-.74,1.63-1.3,2.55-.08,.13-.16,.27-.25,.41-.59,.96-1.31,1.98-2.14,3.05-.11,.15-.24,.31-.36,.47-.29,.36-.58,.73-.89,1.1-.1,.11-.2,.23-.3,.35l-.11,.14c-.83,.99-1.78,2.06-2.83,3.16-.15,.16-.3,.32-.46,.48-.94,.98-1.98,2.02-3.09,3.07-.21,.2-.4,.38-.59,.56-1.1,1.03-2.28,2.09-3.49,3.15-.22,.19-.45,.39-.68,.58-2.86,2.44-5.94,4.84-9.15,7.14-.28,.2-.56,.4-.84,.59-.56,.4-1.13,.8-1.71,1.2-.29,.19-.58,.4-.86,.59l-.58,.37Zm-10.81-47.71l3.43,6.43c3.93,7.36,6.02,15.66,6.04,24,.47,2.71,.86,5.35,1.14,7.81,.39,3.36,.58,6.31,.57,8.78,.29-.19,.56-.38,.83-.57,.58-.4,1.15-.79,1.71-1.19,.28-.19,.56-.4,.84-.59,3.21-2.29,6.27-4.68,9.13-7.12,.23-.19,.46-.39,.68-.58,1.22-1.05,2.4-2.11,3.49-3.14,.2-.18,.38-.35,.56-.53,1.14-1.08,2.17-2.11,3.11-3.09,.16-.16,.31-.32,.46-.48,1.04-1.1,1.99-2.16,2.81-3.15l.12-.14c.09-.11,.19-.23,.29-.34,.31-.38,.6-.73,.88-1.09,.13-.16,.25-.31,.36-.46,.81-1.05,1.52-2.07,2.11-3.02,.09-.13,.17-.27,.24-.4,.55-.9,.97-1.74,1.28-2.49l.04-.1c.03-.07,.06-.14,.08-.2,.08-.2,.13-.39,.19-.58,.03-.11,.05-.2,.08-.28,.15-.62,.18-1.15,.09-1.55-.03-.1-.05-.21-.1-.32-.06-.17-.14-.33-.22-.47-2.74-4.83-18.88-11.95-40.25-15.14Z"/><path class="cls-14" d="M254.4,141.66c-3.47-1.33-13.25-4.94-22.74-7.31-6.14-1.53-11.66-2.62-15.53-3.3l-2.47-4.64c22.13,3.25,38.08,10.58,40.74,15.25Z"/><path class="cls-67" d="M254.66,144.15c-.02,.1-.06,.19-.08,.29-.05,.19-.11,.38-.19,.58-.04,.11-.08,.21-.13,.32-.3,.76-.73,1.59-1.29,2.52-.08,.14-.16,.27-.25,.4-.58,.94-1.29,1.96-2.13,3.03-.11,.15-.24,.31-.36,.47-.28,.36-.57,.72-.88,1.09-.14,.16-.28,.33-.42,.49-.85,1.01-1.8,2.06-2.82,3.15-.15,.16-.3,.32-.46,.48-.96,1-1.99,2.03-3.09,3.06-.2,.19-.39,.38-.59,.56-1.1,1.03-2.27,2.08-3.5,3.14-.22,.2-.45,.39-.68,.58-2.76,2.35-5.81,4.75-9.14,7.13-.28,.2-.56,.4-.84,.59-.57,.4-1.14,.8-1.71,1.2-.29,.19-.57,.4-.86,.59-.09,.06-.17,.12-.26,.17,.04-2.83-.21-6.02-.56-9.09,8.34-5.02,26.14-16.22,30.22-22.74,.05,.11,.08,.23,.11,.35,.1,.45,.07,1-.08,1.65Z"/><g class="cls-25"><path class="cls-57" d="M129.61,202.44c-3.2,0-6.32-.1-9.33-.29-3.57-.22-7.02-.57-10.26-1.06-7.53-1.13-13.92-2.92-19.04-5.34-7.45-3.52-11.86-8.18-13.13-13.86-1.27-5.68,.76-11.78,6.01-18.12,3.6-4.35,8.64-8.69,14.97-12.91,2.73-1.81,5.7-3.59,8.84-5.31,2.84-1.55,5.86-3.07,9-4.53,2.95-1.36,6.02-2.68,9.11-3.91,10.37-4.12,21.58-7.54,33.32-10.15,22.04-4.91,41.94-3.69,54.74-1.81,23.7,3.47,40.92,11.63,42.14,17.06,.82,3.69-4.46,10.22-7.7,13.79-5.91,6.52-14.16,13.44-23.22,19.46-10.82,7.19-28.33,16.79-50.32,21.69-11.73,2.61-23.34,4.28-34.48,4.95-3.33,.2-6.66,.31-9.91,.33-.26,.02-.51,.02-.75,.02Zm61.58-76.4c-9.48,0-20.22,.88-31.54,3.4-11.6,2.59-22.68,5.96-32.94,10.04-3.06,1.21-6.09,2.51-8.99,3.85-3.08,1.43-6.06,2.92-8.85,4.45-3.07,1.68-5.99,3.43-8.66,5.2-6.13,4.07-10.97,8.26-14.42,12.42-4.73,5.71-6.57,11.09-5.48,15.96,1.09,4.88,5.04,8.95,11.74,12.13,4.88,2.31,11.05,4.03,18.33,5.13,3.16,.47,6.54,.83,10.04,1.04,3.17,.2,6.5,.29,9.9,.28,3.21-.02,6.49-.13,9.77-.33,11.01-.66,22.48-2.31,34.08-4.9,21.6-4.82,38.83-14.26,49.47-21.32,20.66-13.73,30.57-27.41,29.85-30.59-.72-3.25-15.51-11.52-40.03-15.11-6.02-.89-13.62-1.63-22.28-1.63Z"/></g><path class="cls-38" d="M187,177.63c-7.73,1.72-15.41-1.52-19.71-7.6-1.42-2-2.48-4.32-3.04-6.87-.21-.95-.35-1.9-.41-2.83-.66-9.26,5.54-17.84,14.88-19.93,.62-.14,1.23-.24,1.84-.32,7.89-.96,15.43,3.08,19.09,9.88,.81,1.51,1.43,3.15,1.83,4.91,2.29,10.28-4.19,20.47-14.47,22.77Z"/><path class="cls-14" d="M163.86,160.25c.69-8.09,6.52-15.14,14.85-16.99,.62-.14,1.23-.24,1.84-.32,7.89-.96,15.43,3.08,19.09,9.88,.81,1.51,1.43,3.15,1.83,4.91,.19,.86,.32,1.72,.39,2.57,.17-1.9,.04-3.84-.39-5.8-.39-1.75-1.02-3.4-1.83-4.91-3.66-6.79-11.21-10.84-19.09-9.87-.61,.07-1.23,.18-1.84,.32-9.33,2.08-15.53,10.67-14.88,19.93,0,.09,.02,.19,.03,.29Z"/><path class="cls-67" d="M187,177.63c-7.73,1.72-15.41-1.52-19.71-7.6-.82-1.51-1.44-3.16-1.83-4.93-.03-.12-.05-.24-.08-.37,4.32,6.02,11.97,9.22,19.66,7.51,10.15-2.26,16.6-12.23,14.55-22.38,.03,.04,.05,.07,.07,.1,.81,1.51,1.43,3.15,1.83,4.91,2.28,10.28-4.2,20.47-14.48,22.77Z"/><path class="cls-57" d="M182.86,179.35c-9.32,0-17.74-6.45-19.85-15.91-1.18-5.31-.23-10.74,2.69-15.33,2.91-4.59,7.44-7.76,12.73-8.94,5.31-1.18,10.74-.23,15.33,2.68,4.59,2.92,7.76,7.44,8.93,12.73,2.44,10.95-4.48,21.83-15.43,24.27-1.47,.33-2.95,.49-4.41,.49Zm.04-38.15c-1.3,0-2.61,.15-3.91,.44-4.64,1.04-8.61,3.81-11.16,7.83-2.55,4.01-3.38,8.78-2.35,13.42,2.14,9.58,11.67,15.65,21.26,13.51,9.58-2.14,15.65-11.67,13.51-21.25-1.04-4.64-3.82-8.61-7.83-11.16-2.88-1.83-6.16-2.78-9.51-2.78Z"/><path class="cls-57" d="M182.86,179.39c-9.33,0-17.78-6.46-19.88-15.94-1.19-5.31-.23-10.77,2.69-15.35,2.92-4.59,7.45-7.78,12.76-8.95,5.31-1.19,10.77-.23,15.36,2.69,4.59,2.92,7.78,7.45,8.95,12.76,2.44,10.96-4.49,21.88-15.45,24.32-1.48,.32-2.97,.48-4.43,.48Zm.04-38.15c-1.29,0-2.6,.14-3.9,.43-4.64,1.04-8.59,3.81-11.14,7.81-2.55,4.01-3.38,8.77-2.34,13.4,2.13,9.56,11.65,15.61,21.21,13.47,9.57-2.13,15.61-11.64,13.48-21.21-1.04-4.63-3.81-8.59-7.81-11.13-2.89-1.83-6.17-2.78-9.51-2.78Z"/><path class="cls-46" d="M192.82,166.91c-4.35,5.49-12.34,6.43-17.85,2.07-2.73-2.16-4.33-5.2-4.73-8.4-.4-3.26,.45-6.67,2.65-9.44,4.35-5.5,12.34-6.43,17.85-2.07,3.91,3.09,5.51,8.03,4.55,12.59-.38,1.86-1.2,3.66-2.47,5.26Z"/><path class="cls-57" d="M182.85,172.35c-2.91,0-5.82-.94-8.27-2.88-2.77-2.19-4.53-5.32-4.96-8.82-.44-3.58,.55-7.09,2.78-9.92,4.57-5.77,12.97-6.74,18.74-2.18,3.99,3.16,5.82,8.22,4.78,13.21-.43,2.03-1.3,3.89-2.6,5.53-2.64,3.33-6.54,5.06-10.47,5.06Zm.03-25.4c-3.57,0-7.1,1.57-9.49,4.58-2.02,2.55-2.91,5.74-2.52,8.98,.39,3.17,1.99,6.01,4.49,7.99,2.53,2,5.69,2.9,8.89,2.52,3.21-.37,6.08-1.96,8.08-4.5,1.18-1.48,1.97-3.17,2.35-5,.95-4.52-.71-9.1-4.32-11.96-2.2-1.76-4.85-2.6-7.47-2.6Z"/><path class="cls-39" d="M192.27,161.85c-.58,1.68-1.76,3.12-3.23,4.18-1.48,1.06-3.26,1.74-5.09,1.96-1.83,.21-3.72-.04-5.41-.73-1.68-.7-3.17-1.83-4.11-3.33,1.68,.56,3.2,.97,4.72,1.19,1.52,.21,3,.23,4.47,.06,1.47-.17,2.91-.53,4.34-1.08,1.43-.55,2.82-1.31,4.31-2.24Z"/><path class="cls-17" d="M79.46,193.29l-5.54-22.61c-.68-2.74,1.63-5.5,4.82-5.8l4.61-.44,7.36,30.02-4.3,1.74c-2.96,1.21-6.28-.18-6.95-2.91Z"/><path class="cls-14" d="M78.93,168.55l4.61-.44,6.64,27.05,.44-.18-7.36-30.02-4.61,.44c-3.19,.3-5.48,3.07-4.82,5.8l.29,1.19c.48-1.97,2.39-3.62,4.81-3.85Z"/><g class="cls-11"><g class="cls-56"><g><g class="cls-47"><path d="M90.71,194.46l-4.3,1.74c-2.96,1.2-6.29-.19-6.95-2.92l-2.01-8.19c1.39,1.29,3.66,1.73,5.75,.89l4.3-1.74-4.84-19.74,.69-.06,7.36,30.02Z"/></g><g class="cls-66"><path class="cls-57" d="M84.19,196.83c-.89,0-1.76-.2-2.55-.6-1.22-.62-2.06-1.65-2.36-2.9l-2.16-8.8,.45,.43c1.39,1.29,3.63,1.64,5.55,.85l4.15-1.68-4.85-19.79,1.06-.1,.04,.16,7.4,30.18-4.44,1.8c-.73,.3-1.52,.45-2.29,.45Zm-6.42-11.23l1.88,7.64c.28,1.14,1.05,2.08,2.17,2.65,1.34,.69,3.05,.74,4.53,.14l4.15-1.68-7.28-29.71-.32,.03,4.83,19.68-4.45,1.8c-1.87,.79-4.01,.55-5.51-.54Z"/></g></g></g></g><path class="cls-57" d="M83.62,198.22c-.91,0-1.82-.21-2.63-.62-1.31-.67-2.2-1.78-2.54-3.14l-5.97-24.35c-.33-1.35-.04-2.76,.81-3.96,.98-1.38,2.55-2.27,4.31-2.44l6.71-.64,7.88,32.15-6.26,2.54c-.74,.3-1.54,.45-2.32,.45Zm-2.71-4.36c.15,.63,.59,1.16,1.24,1.49,.84,.42,1.9,.46,2.85,.07l4.23-1.71-6.84-27.91-4.54,.43c-1.02,.1-1.95,.61-2.5,1.39-.42,.59-.57,1.26-.41,1.89l5.96,24.35Z"/><path class="cls-57" d="M225.48,174.46l-2.23-.08,.03-.69c.57-16.39-3.1-32.77-10.59-47.35l1.98-1.02c7.67,14.92,11.42,31.68,10.83,48.45l-.02,.69Z"/><path class="cls-57" d="M137.94,200.99l-.92-14.15c-.81-12.59-3.59-24.92-8.23-36.66l-4.56-11.49,2.07-.82,4.55,11.49c4.73,11.95,7.56,24.52,8.39,37.34l.92,14.15-2.22,.14Z"/><path class="cls-57" d="M182.85,172.84c-3.01,0-6.03-.97-8.57-2.98-2.86-2.27-4.69-5.52-5.14-9.14-.45-3.7,.57-7.35,2.89-10.28,4.73-5.97,13.45-6.98,19.43-2.26,4.14,3.28,6.03,8.52,4.95,13.69-.44,2.1-1.34,4.03-2.69,5.73-2.74,3.43-6.78,5.22-10.86,5.22Zm.03-25.41c-3.43,0-6.82,1.51-9.1,4.39-1.94,2.45-2.8,5.51-2.42,8.61,.38,3.04,1.92,5.77,4.31,7.67,5.02,3.96,12.32,3.11,16.29-1.9,1.13-1.43,1.89-3.04,2.26-4.8,.92-4.34-.68-8.74-4.15-11.48-2.13-1.68-4.67-2.49-7.18-2.49Z"/><g class="cls-22"><g class="cls-4"><g><g class="cls-37"><path class="cls-42" d="M210.77,127.13c-7.49,4.86-27.98,.65-33.33,3.99-1.94,1.21,2.45,5.33-.69,16.53-2.16,7.7-12.12,14.48-18.59,12.78-11.02-2.9-3.07-16.43-21.16-17.45-10.08-.57-13.66-1.72-14.84-2.61,.35-.15,.7-.3,1.06-.45,9.89-4.07,20.96-7.65,32.8-10.44,19.32-4.56,38.18-4.58,53.93-2.46,.28,.03,.55,.06,.82,.11Z"/></g><g class="cls-13"><path class="cls-57" d="M160.32,160.87c-.76,0-1.51-.09-2.2-.28-4.81-1.27-6.06-4.46-7.38-7.85-1.72-4.43-3.52-9.01-13.73-9.58-8.09-.46-13.25-1.37-14.95-2.65l-.26-.2,.3-.12c.35-.15,.71-.3,1.06-.45,10.22-4.2,21.27-7.72,32.82-10.45,21.68-5.12,41.33-4.17,53.99-2.47,.28,.04,.55,.07,.82,.11l.49,.07-.42,.27c-4.15,2.69-12.28,2.64-19.46,2.58-5.92-.04-11.51-.08-13.88,1.41-.61,.38-.48,1.12-.13,2.74,.55,2.53,1.46,6.75-.48,13.67-1.93,6.96-10.15,13.19-16.6,13.19Zm-37.77-20.47c1.39,.83,5.06,1.86,14.46,2.39,10.46,.59,12.29,5.29,14.06,9.82,1.29,3.3,2.51,6.42,7.13,7.64,6.46,1.69,16.23-5.05,18.37-12.65,1.92-6.83,1.01-11,.47-13.49-.35-1.62-.56-2.6,.3-3.14,2.46-1.54,8.1-1.51,14.07-1.46,6.87,.04,14.63,.1,18.81-2.26-.1-.02-.2-.03-.3-.04-12.63-1.69-32.23-2.64-53.86,2.46-11.54,2.72-22.57,6.23-32.77,10.43-.26,.09-.51,.19-.74,.3Z"/></g></g></g></g><path class="cls-1" d="M118.7,80.89l-5.66,1.72L89.27,4.61c-.45-1.48,.38-3.04,1.86-3.49l.3-.09c1.48-.45,3.04,.38,3.49,1.86l23.79,78Z"/><path class="cls-6" d="M100.09,36.7s-2.39-.7-5.75-.83h-.01c-3.94-.16-9.21,.47-13.55,3.92t-.02,.01c-1.13,.9-2.19,1.99-3.14,3.3,0,0,0,0-.01,0-.09,.13-.18,.24-.26,.36-1.12,1.61-2.22,3.02-3.31,4.25-5.9,6.74-11,8.17-12.43,8.44h0c-.26,.04-.38,.06-.38,.06l-2.22-5.18-.52-1.19-9.92-23.09c9.88-5.63,12.33-9.39,15.52-13.45,.74-.94,1.52-1.91,2.44-2.91,1.95-2.13,3.92-3.64,5.84-4.7,6.09-3.35,11.81-2.14,15.25-.73,.01,0,.03,.01,.04,.02,.04,.02,.09,.04,.13,.06h.01c1.97,.82,3.14,1.68,3.14,1.68l9.15,29.96Z"/><path class="cls-57" d="M61.13,56.44l-2.79-6.49-9.98-23.23,.14-.08c9.09-5.18,11.82-8.72,14.74-12.47,.24-.31,.48-.62,.72-.93,.72-.91,1.52-1.89,2.45-2.91,1.84-2.01,3.83-3.6,5.89-4.74,6.05-3.33,11.72-2.24,15.41-.74l.2,.09c1.95,.81,3.11,1.65,3.16,1.68l.05,.03,9.26,30.35-.33-.09s-2.4-.69-5.7-.83c-3.72-.15-9.07,.41-13.44,3.89l-.05,.04c-1.11,.9-2.16,1.99-3.06,3.22l-.05,.05c-.07,.09-.15,.21-.24,.33-1.07,1.56-2.19,2.99-3.31,4.27-5.89,6.74-11.03,8.2-12.49,8.49h-.07c-.23,.06-.37,.07-.37,.07h-.14Zm-12.3-29.58l12.53,29.17c.06-.01,.15-.02,.24-.05,1.42-.27,6.47-1.7,12.33-8.39,1.12-1.27,2.22-2.69,3.29-4.24,.08-.11,.16-.23,.25-.35l.04-.05c.9-1.24,1.97-2.37,3.16-3.32,4.47-3.57,9.91-4.14,13.69-3.98,2.64,.11,4.7,.56,5.47,.76l-9.02-29.58c-.24-.17-1.34-.9-3.02-1.6h-.04l-.04-.03s-.04-.02-.05-.03l-.09-.05c-3.61-1.46-9.17-2.52-15.09,.74-2.03,1.11-3.97,2.68-5.79,4.67-.93,1.01-1.72,1.99-2.44,2.9-.24,.31-.48,.62-.72,.93-2.91,3.77-5.67,7.33-14.7,12.49Z"/><path class="cls-6" d="M190.69,99.53c-6.66,2.6-17.26,9.33-17.51,10.86-.18,1.16,.89,5.07,2.7,7.14,.57,.65,1.2,1.11,1.91,1.27,2.92,.62,8.98,3.48,9.2,4.55,0,0-20.95,1.51-23.01,2.62,4.15,2.23,9.14,7.99,8.22,15.73-.05,.38-.1,.74-.15,1.11-1.88,12.75-8.98,16.06-13.04,14.28-7.39-3.25-2.8-18.66-22.95-19.72-12.74-.66-15.29-14.63-15.38-25.08-.01-.96,0-1.91,.03-2.8,.08-2.8,.31-5.17,.48-6.7,.02-.15,.04-.29,.05-.42,0-.01,0-.02,.01-.03,.1-.44,.21-.88,.33-1.33,.02-.06,.03-.11,.04-.15l-.17,.07s-6.4-4.72-12.93-14.56c-5.47-8.23-6.06-15.68-3.6-19.36,2.51-3.74,8.19-3.58,15.09,3.64,1.25,1.31,2.49,2.53,3.69,3.68,14.07,13.36,24.69,15.87,24.69,15.87l-.39,.16c5.71,1.48,15.1,2.72,24.96-.93,4.73-1.75,7.94-3.36,10.38-4.72,5.74-3.2,7.21-5.03,14.31-4.16,2.19,.27,3.41,1.19,3.92,2.49,1.82,4.7-5.69,14.43-10.9,16.48Z"/><path class="cls-57" d="M161.21,157.72c-.8,0-1.57-.15-2.28-.46-2.7-1.19-3.82-3.89-5.1-7.02-2.21-5.35-4.94-12.02-17.79-12.69-12.67-.67-15.45-14.1-15.55-25.26-.01-.91,0-1.82,.03-2.81,.08-2.83,.31-5.22,.49-6.72,.02-.15,.04-.29,.05-.42l.02-.07c.09-.38,.18-.78,.29-1.18l-.03-.02c-.06-.04-6.49-4.85-12.97-14.6-5.75-8.65-5.95-16.05-3.6-19.56,.98-1.47,2.43-2.33,4.16-2.48,3.22-.27,7.2,1.89,11.22,6.09,1.18,1.23,2.42,2.47,3.68,3.68,13.86,13.16,24.5,15.8,24.6,15.82l.57,.14-.41,.16c6.02,1.48,14.94,2.41,24.3-1.06,5.1-1.9,8.35-3.59,10.35-4.71,.91-.52,1.73-.99,2.45-1.42,3.96-2.33,5.94-3.51,11.96-2.77,2.13,.26,3.5,1.14,4.07,2.61,1.94,4.96-5.83,14.71-10.99,16.73-6.56,2.56-17.16,9.31-17.39,10.72-.18,1.13,.91,4.98,2.66,6.98,.58,.67,1.19,1.07,1.81,1.2,2.82,.6,9.09,3.45,9.34,4.69l.04,.21-.21,.02c-.21,.02-19.26,1.4-22.6,2.46,4.5,2.6,8.83,8.53,7.97,15.73-.05,.38-.1,.76-.15,1.11-1.36,9.27-5.27,12.69-7.47,13.91-1.17,.62-2.39,.95-3.56,.95Zm-39.34-57.16l-.07,.34s-.02,.09-.04,.14c-.13,.47-.23,.91-.34,1.34v.05c-.02,.1-.03,.24-.05,.39-.18,1.49-.41,3.87-.48,6.68-.03,.98-.04,1.9-.03,2.79,.09,11,2.82,24.24,15.2,24.89,13.08,.69,15.88,7.47,18.11,12.92,1.26,3.06,2.34,5.69,4.91,6.82,1.63,.72,3.63,.54,5.49-.49,2.15-1.19,5.94-4.53,7.29-13.64,.05-.36,.1-.73,.14-1.1,.86-7.22-3.6-13.11-8.12-15.55l-.3-.16,.3-.16c1.96-1.05,20.22-2.44,22.81-2.62-.83-1.07-6.12-3.6-8.95-4.2-.69-.15-1.36-.59-2.01-1.32-1.88-2.14-2.93-6.11-2.74-7.29,.28-1.69,11.14-8.47,17.61-11.01,4.92-1.92,12.63-11.55,10.78-16.25-.53-1.34-1.79-2.14-3.78-2.38-5.9-.72-7.84,.43-11.73,2.72-.72,.43-1.55,.91-2.46,1.43-2.01,1.13-5.28,2.83-10.41,4.73-9.73,3.61-19.01,2.51-25.06,.94l-.55-.14,.41-.17c-2.33-.71-12.06-4.2-24.24-15.76-1.27-1.2-2.52-2.44-3.69-3.68-3.94-4.13-7.82-6.26-10.92-5.99-1.62,.14-2.96,.94-3.88,2.31-2.29,3.4-2.06,10.65,3.59,19.15,6.05,9.1,12.05,13.86,12.81,14.45l.4-.19Z"/><path class="cls-67" d="M183.35,84.71c-4.83,7.4-14.83,12.53-25.86,12.53-15.84,0-30.22-10.34-33.77-22.9,14.07,13.36,24.69,15.86,24.69,15.86l-.39,.16c5.71,1.48,15.1,2.73,24.96-.93,4.72-1.77,7.93-3.37,10.37-4.72Z"/><path class="cls-67" d="M190.69,99.53c-6.66,2.6-17.26,9.33-17.51,10.86-.18,1.16,.89,5.07,2.7,7.14-2.44-1.46-4.71-3.88-4.71-7.8,0-8.53,8.63-7.53,20.15-15,6.84-4.44,9.46-9.63,10.25-11.7,1.84,4.71-5.67,14.44-10.89,16.49Z"/><path class="cls-67" d="M124.24,98.81c-.48,4.74-1.11,7.85-.26,13.72,.28,1.91-.81,1.28-3.31-.25-.01-.96,0-1.9,.03-2.8,.08-2.8,.31-5.17,.48-6.7,.02-.15,.04-.29,.06-.42,0-.01,0-.02,0-.03,.1-.43,.21-.88,.33-1.33,.02-.05,.03-.11,.04-.15l-.17,.07s-6.4-4.72-12.93-14.56c-5.47-8.23-6.06-15.68-3.59-19.36-.05,2.47,.38,6.98,3.28,12.32,5.14,9.46,16.54,14.73,16.05,19.48Z"/><path class="cls-67" d="M168.12,126.63s-6.02-.51-11.98-.73c-5.97-.23-11.66,.69-11.66-3.79,0-.87-.01-2.07-.03-3.46,0-.3-.28-.53-.58-.48-6.63,1.1-15.06,.43-19.06,0-.39-.05-.68,.37-.49,.72,2.83,5.23,7.75,9.89,16.35,9.6,19.19-.61,15.17,10.34,20.86,14.57,3.89,2.88,7.45,2.42,10.93-.26-1.88,12.75-8.98,16.06-13.04,14.28-7.4-3.25-2.8-18.66-22.95-19.72-12.08-.64-14.99-13.21-15.34-23.42l1.06-.16,5.79-.91,14.15-.9s1,.32,2.23,.83c-.06-4.09-.15-8.37-.2-10.88-.03-1.21,.95-2.21,2.17-2.21h9.77l13.7,20.31s15.44,4.74,13.52,5.48c-1.35,.53-15.2,1.13-15.2,1.13Z"/><g class="cls-45"><g class="cls-62"><g><g class="cls-19"><path class="cls-42" d="M121.78,113.78l-1.06,.16c-.05-1.56-.04-3.05,0-4.45,.24,1.29,.58,2.74,1.07,4.3Z"/></g><g class="cls-5"><path class="cls-57" d="M120.54,114.16v-.21c-.05-1.42-.06-2.92-.02-4.46l.05-1.72,.32,1.69c.29,1.48,.64,2.91,1.06,4.27l.06,.21-1.48,.23Zm.33-3.02c0,.89,0,1.76,.03,2.59l.64-.1c-.24-.81-.47-1.65-.67-2.49Z"/></g></g></g></g><g class="cls-36"><g class="cls-63"><g><g class="cls-61"><path class="cls-42" d="M120.71,114.07l-.04-.13h.04v.13Z"/></g><g class="cls-52"><path class="cls-57" d="M120.9,115.16l-.48-1.35,.44-.07,.04,.34v1.09Z"/></g></g></g></g><path class="cls-57" d="M188.21,126.04c-.43,0-.85-.22-1.08-.61-1.91-3.17-10.35-5.76-13.44-6.49-.68-.16-1.1-.84-.94-1.52,.16-.68,.84-1.09,1.51-.94,1.24,.29,12.22,2.99,15.03,7.65,.36,.59,.17,1.38-.44,1.73-.19,.12-.42,.17-.65,.17Z"/><path class="cls-6" d="M121.25,102.36c-.02,.13-.03,.28-.05,.42,.01-.15,.03-.29,.05-.42Z"/><path class="cls-57" d="M121.38,102.81l-.38-.04c.01-.17,.03-.32,.06-.45l.36,.06c0,.14-.02,.28-.04,.43Z"/><path class="cls-6" d="M150.94,90.82c.74,.15,1.49,.28,2.25,.4,2.07,.3,4.19,.44,6.31,.42,3.81-.05,7.68-.66,11.49-1.87,.68-.22,1.35-.45,2.01-.7,1.34-.51,2.66-1.08,3.92-1.72,6.2-3.13,11.32-7.74,15.03-13.26,6.56-9.73,8.77-22.26,4.95-34.31-2.66-8.38-7.84-15.26-14.43-20.07-.73-.54-1.49-1.05-2.25-1.54-2.41-1.52-4.97-2.78-7.66-3.76-2.68-.98-5.48-1.67-8.34-2.06-1.24-.17-2.48-.27-3.74-.32-.47-.02-.94-.03-1.41-.03-4.02-.02-8.11,.59-12.15,1.88-20.96,6.65-32.56,29.03-25.91,49.98,4.52,14.21,16.28,24.13,29.93,26.95Z"/><path class="cls-57" d="M158.94,91.83c-1.93,0-3.87-.15-5.78-.43-.73-.1-1.49-.25-2.26-.4-14.17-2.93-25.69-13.31-30.06-27.08-3.23-10.18-2.3-21.02,2.61-30.5,4.91-9.48,13.23-16.49,23.42-19.71,3.98-1.27,8.09-1.91,12.2-1.89,.47,0,.95,.01,1.42,.03,1.26,.04,2.53,.16,3.77,.32,2.84,.38,5.66,1.08,8.38,2.07,2.69,.98,5.28,2.24,7.69,3.78,.78,.48,1.54,1.01,2.26,1.53,6.89,5.04,11.91,12.02,14.5,20.17,3.71,11.71,1.9,24.27-4.97,34.46-3.81,5.66-9.04,10.27-15.1,13.32-1.3,.65-2.62,1.23-3.94,1.72-.62,.24-1.28,.47-2.01,.7-3.76,1.2-7.65,1.83-11.55,1.88-.21,.01-.4,.01-.58,.01Zm-7.97-1.19c.77,.16,1.52,.29,2.24,.4,2.08,.3,4.2,.44,6.29,.42,3.87-.05,7.72-.68,11.44-1.86,.73-.23,1.38-.46,1.99-.69,1.3-.49,2.61-1.06,3.91-1.71,6.01-3.03,11.18-7.59,14.96-13.19,6.81-10.1,8.6-22.55,4.92-34.15-2.57-8.09-7.53-14.99-14.35-19.99-.72-.52-1.47-1.04-2.24-1.52-2.4-1.52-4.96-2.77-7.63-3.74-2.69-.98-5.48-1.68-8.3-2.05-1.23-.17-2.49-.28-3.73-.32-.47-.02-.93-.03-1.4-.03-4.07,0-8.15,.61-12.09,1.86-10.09,3.2-18.32,10.14-23.2,19.54-4.87,9.4-5.79,20.13-2.58,30.21,4.32,13.63,15.73,23.91,29.77,26.82Z"/><g class="cls-54"><g class="cls-2"><g><g class="cls-26"><path class="cls-42" d="M154.9,91.43c.77,.08,1.52,.14,2.28,.17,2.1,.1,4.22,.03,6.33-.22,3.79-.43,8.09-1.23,11.77-2.82,.65-.28,1.29-.58,1.92-.89,1.29-.64,2.53-1.35,3.73-2.11,5.85-3.74,9.96-9.04,13.1-14.91,5.55-10.34,6.48-23.02,1.46-34.63-2.35-5.44-5.78-10.09-9.91-13.8,1.05,8.31-.57,16.64-4.43,23.84-3.15,5.86-7.77,10.97-13.63,14.7-1.19,.76-2.43,1.46-3.73,2.11-.63,.32-1.27,.61-1.92,.89-3.67,1.6-7.46,2.59-11.24,3.02-2.12,.25-4.23,.32-6.33,.22-.76-.04-1.53-.1-2.28-.17-8.36-.86-16.29-4.35-22.57-9.99,.46,3.63,1.43,7.26,2.96,10.79,5.93,13.7,18.63,22.37,32.48,23.8Z"/></g><g class="cls-44"><path class="cls-57" d="M158.95,91.83c-.59,0-1.19-.01-1.78-.04-.73-.04-1.51-.09-2.3-.17-14.39-1.49-26.9-10.66-32.64-23.92-1.51-3.47-2.51-7.12-2.98-10.84l-.06-.49,.37,.33c6.2,5.56,14.17,9.1,22.47,9.95,.77,.08,1.54,.14,2.27,.17,2.1,.09,4.21,.02,6.3-.22,3.84-.44,7.61-1.45,11.2-3.01,.7-.3,1.33-.59,1.91-.9,1.25-.62,2.5-1.32,3.71-2.1,5.68-3.62,10.36-8.68,13.56-14.64,3.93-7.32,5.45-15.53,4.41-23.72l-.06-.49,.38,.33c4.29,3.86,7.65,8.52,9.95,13.87,4.88,11.27,4.34,23.95-1.47,34.79-3.6,6.72-7.91,11.62-13.17,14.97-1.22,.78-2.49,1.49-3.74,2.12-.6,.3-1.23,.59-1.93,.9-3.12,1.35-6.98,2.28-11.82,2.83-1.51,.17-3.05,.26-4.58,.26Zm-4.03-.59c.77,.08,1.54,.14,2.27,.17,2.1,.09,4.22,.02,6.3-.22,4.8-.56,8.63-1.47,11.71-2.81,.7-.3,1.32-.59,1.92-.89,1.24-.63,2.49-1.32,3.71-2.1,5.21-3.32,9.48-8.18,13.05-14.84,5.76-10.74,6.29-23.3,1.46-34.47-2.22-5.14-5.41-9.64-9.49-13.4,.93,8.1-.63,16.2-4.51,23.45-3.22,6.02-7.95,11.13-13.68,14.77-1.22,.78-2.48,1.49-3.75,2.12-.59,.3-1.22,.59-1.93,.9-3.63,1.57-7.42,2.59-11.3,3.04-2.1,.24-4.24,.32-6.36,.22-.73-.04-1.51-.09-2.3-.17-8.2-.85-16.1-4.29-22.3-9.71,.5,3.52,1.46,6.96,2.89,10.24,5.68,13.15,18.07,22.23,32.33,23.7Z"/></g></g></g></g><g class="cls-65"><g class="cls-68"><g><g class="cls-40"><path class="cls-42" d="M188.2,78.75c-9.57,9.46-11.14,8.45-13.77,8.99-2.17,.44-9.61,1.33-15.47,.1-6.57-1.37-16.66-7.1-20.54-16.06-.61-1.42-1.14-2.84-1.57-4.29l3.74-.72c.56,1.42,1.24,2.82,2.05,4.2,7.3,12.32,19.6,14.1,29.49,12.79,8.92-1.18,15.85-4.9,16.06-5.01Z"/></g><g class="cls-16"><path class="cls-57" d="M165.86,88.67c-2.27,0-4.69-.16-6.94-.63-7.29-1.53-17.01-7.7-20.67-16.18-.61-1.42-1.14-2.86-1.57-4.31l-.06-.19,4.1-.8,.05,.14c.56,1.43,1.24,2.83,2.04,4.17,7.52,12.71,20.09,13.93,29.31,12.71,8.82-1.17,15.71-4.84,16-4.99l1.14-.61-.92,.91c-8.37,8.27-10.66,8.58-12.89,8.88-.34,.05-.65,.09-.98,.16-1.08,.23-4.59,.74-8.6,.74Zm-28.77-21.03c.42,1.36,.93,2.73,1.51,4.07,3.61,8.35,13.21,14.46,20.41,15.96,6.15,1.28,13.71,.24,15.39-.11,.35-.07,.68-.11,1.01-.16,2.08-.29,4.24-.58,11.83-7.95-2.3,1.09-8.09,3.58-15.07,4.51-9.32,1.23-22.04,0-29.68-12.89-.78-1.31-1.45-2.69-2-4.08l-3.4,.66Z"/></g></g></g></g><path class="cls-57" d="M173.42,95.13c.36,1.66,.59,3.35,.79,5.03,.1,.84,.18,1.68,.26,2.52,.07,.84,.14,1.68,.2,2.54,.04,.7-.49,1.3-1.19,1.34-.7,.04-1.3-.49-1.34-1.19v-.19h0c.08-.82,.15-1.66,.21-2.48,.06-.83,.11-1.66,.15-2.49,.08-1.66,.11-3.31,.03-4.96h0c-.02-.26,.18-.48,.43-.49,.21,0,.42,.15,.46,.36Z"/><path class="cls-57" d="M176.03,108.1c-.56,0-1.06-.38-1.22-.94-.18-.68,.22-1.36,.89-1.55,.06-.02,6.76-1.87,15.08-7.7,7.49-5.24,10.15-11.55,8.4-14.62-1.47-2.58-5.91-2.57-11.57,.02-12.77,5.82-20.44,5.21-20.76,5.19-.69-.06-1.21-.67-1.15-1.38,.06-.69,.68-1.2,1.36-1.14,.1,.01,7.42,.54,19.49-4.97,7.07-3.22,12.61-2.84,14.82,1.03,2.35,4.1-.04,11.57-9.14,17.94-8.71,6.1-15.59,7.99-15.88,8.07-.1,.03-.21,.05-.33,.05Z"/><path class="cls-1" d="M116.25,81.28l-.48,.15c-1.42,.43-2.94-.38-3.37-1.8l-5.44-17.84c.48,1.56,2.13,2.44,3.69,1.97,1.56-.48,2.43-2.12,1.97-3.68l5.44,17.83c.43,1.43-.38,2.93-1.81,3.38Z"/><path class="cls-57" d="M158.95,92.94c-.61,0-1.22-.02-1.83-.05-.76-.03-1.55-.09-2.35-.18-14.79-1.53-27.65-10.94-33.55-24.58-4.35-10.07-4.53-21.25-.48-31.45,4.05-10.21,11.82-18.23,21.9-22.59,3.94-1.7,8.08-2.78,12.29-3.19,.44-.05,.92-.09,1.45-.12,1.29-.08,2.6-.1,3.89-.06,2.95,.09,5.91,.51,8.79,1.24,2.85,.73,5.64,1.76,8.27,3.07,.84,.42,1.67,.86,2.47,1.33,7.57,4.44,13.42,11.05,16.92,19.13,5.02,11.58,4.46,24.62-1.52,35.76-3.31,6.18-8.17,11.43-14.06,15.19-1.26,.8-2.55,1.53-3.85,2.17-.6,.3-1.26,.61-1.98,.92-3.72,1.61-7.64,2.66-11.62,3.11-1.56,.19-3.14,.29-4.71,.29Zm-3.92-2.81c.75,.08,1.49,.13,2.21,.17,2.04,.09,4.09,.02,6.12-.21,3.74-.43,7.4-1.42,10.89-2.92,.68-.29,1.29-.57,1.86-.86,1.22-.6,2.44-1.29,3.61-2.04,5.52-3.52,10.07-8.43,13.17-14.22,5.59-10.44,6.11-22.65,1.42-33.5-3.27-7.56-8.75-13.76-15.84-17.92-.74-.43-1.53-.86-2.31-1.25-2.46-1.23-5.07-2.19-7.74-2.88-2.7-.69-5.46-1.08-8.22-1.17-1.21-.03-2.43-.02-3.64,.06-.45,.03-.91,.06-1.35,.1-3.95,.39-7.82,1.39-11.52,2.98-9.44,4.08-16.73,11.6-20.52,21.16-3.79,9.56-3.63,20.03,.46,29.47,5.52,12.78,17.56,21.6,31.42,23.04Z"/><path class="cls-42" d="M154.85,86.17c7.05,.8,12.78,1.44,19.83,2.23,.04-.02,.06-.03,.1-.05,.66-.28,1.29-.58,1.92-.9,1.29-.64,2.53-1.34,3.73-2.1,5.85-3.74,10.47-8.84,13.62-14.7,5.55-10.34,6.48-23.02,1.46-34.63-2.79-6.46-7.09-11.79-12.3-15.78-1.85-.35-3.73-.57-5.63-.63-1.15-.04-2.31-.02-3.47,.05-.43,.03-.86,.06-1.3,.11-3.69,.36-7.4,1.3-10.99,2.85-18.65,8.06-27.22,29.7-19.16,48.34,2.72,6.31,6.99,11.46,12.19,15.2Z"/><path class="cls-57" d="M174.7,88.58l-19.93-2.24-.04-.03c-5.36-3.88-9.6-9.16-12.25-15.27-3.91-9.06-4.07-19.1-.43-28.29,3.64-9.17,10.63-16.39,19.69-20.31,3.54-1.53,7.26-2.49,11.05-2.86,.43-.05,.86-.08,1.3-.11,1.18-.07,2.34-.09,3.49-.05,1.9,.06,3.81,.28,5.66,.63l.08,.03c5.38,4.12,9.65,9.6,12.35,15.85,4.88,11.27,4.34,23.95-1.47,34.79-3.22,6.02-7.95,11.13-13.69,14.77-1.22,.78-2.48,1.49-3.74,2.12-.59,.3-1.22,.59-1.93,.9l-.14,.05Zm-19.8-2.59l19.73,2.22,.05-.03c.7-.3,1.33-.59,1.92-.9,1.25-.62,2.49-1.32,3.71-2.09,5.68-3.63,10.36-8.68,13.56-14.64,5.76-10.74,6.29-23.3,1.46-34.46-2.67-6.18-6.89-11.6-12.2-15.68-1.82-.34-3.69-.56-5.56-.61-1.14-.04-2.29-.02-3.45,.05-.43,.03-.86,.06-1.29,.11-3.76,.37-7.43,1.32-10.94,2.84-8.97,3.88-15.89,11.02-19.49,20.1-3.6,9.09-3.45,19.03,.43,28,2.61,6.02,6.79,11.23,12.08,15.07Z"/><path class="cls-14" d="M171.98,24.1c-.31-.29,.84-.14,1.26-.2,.35-.05,.71-.1,1.07-.14,.97-.1,1.93-.16,2.89-.17,1.58-.02,3.16,.09,4.71,.32,4.47,3.13,8.24,7.41,10.8,12.68,4.6,9.47,4.08,17.51,.2,25.92,0,0-.05-5.48-4.19-15.53-2.31-5.62-5.57-12.35-16.74-22.89Z"/><path class="cls-35" d="M156.04,86.8s.01,0,0,0c3.42,.4,6.94,.35,10.49-.19,.71-.1,1.4-.23,2.09-.37,1.41-.29,2.79-.65,4.14-1.08,6.62-2.1,12.39-5.86,16.94-10.72,4.34-4.65,7.55-10.3,9.28-16.49-8.65,9.79-20.8,14.93-33.08,15.02-7.45,.06-14.95-1.75-21.76-5.51-1.16-.64-2.3-1.34-3.42-2.09,2.34,9.05,7.94,16.56,15.31,21.44Z"/><path class="cls-57" d="M172.79,90.06c-1.1,0-2.04-.32-2.9-.61-1.05-.35-1.95-.66-3.16-.48l-1.89,.27,.35-1.3-.38,.39h-.76s-.18-.07-.18-.07c-8.7-2.93-17.7-5.97-22.37-16.78-4.03-9.33-4.19-19.66-.45-29.11,3.74-9.44,10.94-16.86,20.27-20.9,3.64-1.57,7.46-2.57,11.37-2.95,.38-.04,.8-.08,1.34-.11,1.21-.07,2.42-.1,3.59-.05,1.96,.06,3.92,.28,5.83,.65l.29,.05,.24,.18c5.52,4.22,9.91,9.86,12.68,16.28,5.01,11.57,4.46,24.6-1.51,35.73-3.31,6.17-8.17,11.42-14.05,15.17-1.26,.8-2.55,1.54-3.84,2.17-.6,.3-1.26,.61-1.98,.92-.92,.42-1.74,.57-2.49,.57Zm-4.76-3.65c1.03,.09,1.89,.38,2.67,.65,1.27,.44,2.18,.74,3.57,.14,.68-.29,1.3-.57,1.86-.86,1.22-.6,2.43-1.29,3.61-2.04,5.52-3.52,10.08-8.44,13.19-14.24,5.59-10.45,6.12-22.67,1.42-33.54-2.57-5.93-6.6-11.15-11.67-15.1-1.69-.31-3.42-.49-5.15-.55-1.1-.03-2.23-.02-3.36,.06-.41,.03-.82,.06-1.24,.1-3.66,.35-7.22,1.29-10.63,2.76-8.71,3.76-15.43,10.69-18.92,19.51-3.49,8.82-3.34,18.47,.43,27.18,3.84,8.88,10.48,11.85,20.14,15.14,1.31-1.17,2.34-1.48,3.2-.99,.67,.4,.87,1.09,.87,1.79Z"/><path class="cls-6" d="M121.58,101.01c-.11,.44-.23,.9-.33,1.33,.11-.91,.2-1.41,.2-1.41l.13,.08Z"/><path class="cls-57" d="M121.43,102.38l-.36-.06c.11-.9,.2-1.42,.2-1.42l.04-.28,.48,.32-.04,.14c-.1,.43-.21,.88-.32,1.31Z"/><path class="cls-6" d="M171.7,120.47l-18.37,1.63c-.38,.04-.72-.21-.72-.53v-21.26c0-.32,.34-.57,.72-.53l18.37,1.63c2.41,.21,4.24,1.9,4.24,3.91v11.24c-.01,2.01-1.83,3.69-4.24,3.91Z"/><path class="cls-6" d="M152.9,99.86l-.3,2.87v-2.41c.01-.2,.13-.36,.3-.46Z"/><path class="cls-57" d="M152.79,102.75l-.37-.02v-2.41c0-.26,.15-.49,.4-.62l.31-.16-.34,3.21Z"/><g class="cls-43"><g class="cls-24"><g><g class="cls-34"><path class="cls-42" d="M175.93,105.69v11.25c0,2-1.82,3.68-4.24,3.9l-18.37,1.64c-.38,.04-.72-.21-.72-.53v-8.27l18.06,.29c2.43,.03,4.41-1.45,4.62-3.44l.58-5.51c.05,.22,.07,.45,.07,.68Z"/></g><g class="cls-70"><path class="cls-57" d="M153.26,122.67c-.23,0-.45-.08-.61-.23-.15-.13-.23-.31-.23-.49v-8.46l18.24,.29h.09c2.29,0,4.15-1.4,4.35-3.28l.7-6.64,.25,1.1c.05,.23,.08,.48,.08,.73v11.24c0,2.11-1.9,3.86-4.41,4.08l-18.37,1.64s-.06,.02-.09,.02Zm-.46-8.8v8.07c0,.1,.06,.18,.1,.22,.11,.09,.26,.14,.42,.13l18.37-1.64c2.32-.2,4.07-1.81,4.07-3.72v-9.08l-.28,2.68c-.22,2.09-2.27,3.64-4.81,3.6l-17.87-.27Z"/></g></g></g></g><path class="cls-6" d="M152.61,102.73v10.57h-.38c-.39-.02-.69-.29-.67-.61l1.05-9.96Z"/><path class="cls-57" d="M152.8,113.49h-.57c-.27-.02-.51-.13-.67-.3-.14-.15-.2-.33-.18-.51l1.04-9.96,.38,.02v10.76Zm-.38-7.2l-.67,6.41c-.01,.1,.04,.18,.08,.23,.09,.1,.24,.17,.4,.17h.19v-6.81Z"/><path class="cls-57" d="M153.26,123.37c-.49,0-.97-.18-1.34-.51-.36-.34-.57-.81-.57-1.29v-21.26c0-.48,.21-.95,.57-1.29,.4-.37,.96-.55,1.52-.49l18.37,1.63c3.07,.27,5.4,2.48,5.4,5.16v11.24c0,2.67-2.32,4.89-5.4,5.16l-18.37,1.63c-.05,.01-.11,.01-.18,.01Zm.61-22.26v19.68l17.72-1.57c1.72-.15,3.09-1.32,3.09-2.65v-11.24c0-1.33-1.35-2.49-3.09-2.65l-17.72-1.56Z"/><path class="cls-6" d="M148.33,122.17h3.88c.22,0,.4-.18,.4-.4v-21.65c0-.22-.18-.4-.4-.4h-3.88c-1.01,0-1.82,.82-1.82,1.82v18.82c-.01,1,.81,1.81,1.82,1.81Z"/><path class="cls-57" d="M152.21,122.36h-3.88c-1.11,0-2.01-.9-2.01-2v-18.82c0-1.11,.9-2,2.01-2h3.88c.32,0,.59,.27,.59,.58v21.65c0,.32-.27,.58-.59,.58Zm-3.88-22.45c-.9,0-1.63,.73-1.63,1.63v18.82c0,.9,.73,1.63,1.63,1.63h3.88c.12,0,.21-.1,.21-.21v-21.65c0-.11-.09-.21-.21-.21h-3.88Z"/><g class="cls-27"><g class="cls-60"><g><g class="cls-41"><path class="cls-42" d="M152.61,113.38v8.37c0,.23-.19,.42-.42,.42h-3.76c-1.06,0-1.92-.86-1.92-1.92v-8.38c0,1.06,.86,1.92,1.92,1.92h3.76c.22,.01,.42-.18,.42-.41Z"/></g><g class="cls-53"><path class="cls-57" d="M152.18,122.36h-3.76c-1.16,0-2.1-.95-2.1-2.11v-8.38h.37c0,.96,.78,1.73,1.73,1.73h3.76c.14,0,.23-.1,.23-.23h.37v8.37c.01,.33-.27,.61-.6,.61Zm-5.48-9.29v7.18c0,.96,.78,1.74,1.73,1.74h3.76c.14,0,.23-.11,.23-.23v-7.81c-.07,.03-.15,.04-.23,.04h-3.76c-.72,0-1.35-.36-1.73-.92Z"/></g></g></g></g><path class="cls-57" d="M152.21,123.43h-3.88c-1.7,0-3.08-1.38-3.08-3.08v-18.82c0-1.7,1.38-3.08,3.08-3.08h3.88c.92,0,1.66,.74,1.66,1.66v21.66c0,.93-.74,1.67-1.66,1.67Zm-3.88-22.45c-.3,0-.55,.24-.55,.55v18.82c0,.3,.25,.55,.55,.55h3.02v-19.93h-3.02Z"/><path class="cls-6" d="M125.44,131.64l-2.41-.06c-8.55-.23-14.98-7.85-13.78-16.32l3.13-23.61,.88,2.69v-.09s8.3,6.58,8.17,7.78c-.11,.99-.95,10.19-.5,15.81l4.52,13.8Z"/><path class="cls-57" d="M125.69,131.83l-2.68-.07c-4.13-.11-8.02-1.98-10.68-5.15-2.67-3.15-3.85-7.31-3.28-11.39l3.23-24.41,1.08,3.29c1.4,1.11,8.38,6.7,8.23,7.95-.01,.09-.97,9.81-.49,15.77l4.58,14Zm-13.25-39.35l-3.02,22.81c-.57,3.98,.59,8.03,3.19,11.1,2.6,3.07,6.39,4.9,10.41,5.01l2.16,.05-4.43-13.55c-.49-6.03,.48-15.79,.49-15.89,.08-.7-3.92-4.28-7.81-7.39l-.03,.76-.95-2.92Z"/><path class="cls-67" d="M125.44,131.64l-2.41-.06c-8.55-.23-14.98-7.85-13.78-16.32v-.09s3.13-23.52,3.13-23.52l.88,2.69v-.09s8.3,6.58,8.17,7.78c-.11,.99-.95,10.19-.5,15.81l1.16,3.53,3.36,10.27Z"/><path class="cls-6" d="M122.08,121.37c-5.56-.69-10.18-2.97-12.82-6.2l3.11-23.52,.88,2.69v-.09s8.3,6.58,8.17,7.78c-.11,.99-.95,10.19-.5,15.81l1.16,3.53Z"/><path class="cls-57" d="M125.44,132.91h-.04l-2.41-.06c-4.44-.13-8.61-2.13-11.47-5.52-2.86-3.38-4.15-7.84-3.52-12.24l3.13-23.6c.09-.69,.72-1.18,1.42-1.09,.69,.09,1.18,.72,1.09,1.42l-3.13,23.61c-.53,3.69,.55,7.43,2.95,10.26,2.4,2.84,5.9,4.53,9.62,4.63l2.41,.06c.7,.02,1.25,.6,1.23,1.29-.04,.7-.59,1.24-1.28,1.24Z"/><path class="cls-57" d="M191.08,100.37c-.24,0-.48-.08-.68-.24-5.33-4.17-7.04-16.13-7.11-16.65-.09-.61,.34-1.17,.95-1.26,.61-.08,1.17,.34,1.26,.94,.02,.12,1.66,11.58,6.28,15.2,.48,.38,.57,1.08,.19,1.57-.23,.28-.56,.43-.89,.43Z"/><path class="cls-6" d="M148.81,109.74l.43,4.07s-5.85,.57-5.93,.38c-.08-.2-.61-4.13-.5-4.13,.12,0,6.01-.32,6.01-.32Z"/><path class="cls-57" d="M143.81,114.4c-.62,0-.65-.07-.68-.15,0-.04-.66-4.04-.48-4.31l.05-.08h.1c.13,0,3.98-.2,6-.31h.18s.46,4.42,.46,4.42l-.19,.02c-3.21,.31-4.72,.41-5.44,.41Zm-.35-.36c.58,.04,3.59-.2,5.57-.4l-.38-3.7c-.98,.05-4.81,.26-5.67,.3,.02,.64,.36,3.25,.48,3.8Z"/><path class="cls-6" d="M119.23,109.56h3.44v4.81s-3.53-.34-3.53-.4c0-.04,.09-4.41,.09-4.41Z"/><path class="cls-57" d="M122.86,114.57l-.2-.02q-3.7-.36-3.7-.59c0-.05,.08-3.96,.09-4.42v-.19h3.81v5.21h.01Zm-3.54-.74c.47,.07,2.05,.23,3.16,.34v-4.42h-3.07c-.02,.73-.07,3.41-.09,4.08Z"/><path class="cls-57" d="M110.6,90.44c-.48,0-.92-.3-1.06-.78-.19-.58,.14-1.21,.72-1.4,.1-.04,9.95-3.27,13.35-13.53,.19-.58,.82-.9,1.41-.71,.58,.2,.91,.82,.71,1.41-3.76,11.38-14.34,14.82-14.79,14.96-.11,.04-.22,.05-.33,.05Z"/><path class="cls-57" d="M115.52,83.55c-1.45,0-2.8-.94-3.24-2.4L88.89,4.45c-.27-.87-.18-1.78,.25-2.58s1.14-1.38,2-1.65l.23-.07c.87-.27,1.78-.18,2.58,.25s1.39,1.14,1.65,2l23.38,76.7c.54,1.79-.47,3.68-2.25,4.22l-.23,.07c-.32,.1-.66,.15-.98,.15ZM92.37,2.61c-.08,0-.15,.01-.23,.04l-.23,.07c-.21,.06-.36,.19-.46,.38-.1,.18-.11,.4-.06,.59l23.39,76.7c.06,.2,.19,.36,.38,.46,.18,.1,.4,.11,.59,.06l.23-.07c.42-.13,.65-.57,.52-.97L93.11,3.17c-.1-.34-.41-.56-.74-.56Z"/><path class="cls-57" d="M82.95,18.21c-.03-.76-.04-1.54-.31-2.28-.08-.07-.15-.15-.23-.22-.23-.04-.46-.11-.69-.14-1.66-.17-3.3-.09-4.93,.3-2.11,.51-3.98,1.47-5.47,3.08-.54,.59-1.01,1.22-1.51,1.85-.13,.17-.24,.24-.47,.18-.54-.15-1.1-.18-1.66-.11-1.5,.16-2.76,.83-3.88,1.8-1.21,1.04-2.13,2.33-2.95,3.7-.35,.58-.1,1.13,.58,1.24,.42,.07,.84,.14,1.27,.21,1.01,.17,2.02,.33,3.03,.49,0,.03,.01,.05,.01,.06-.01,.02-.01,.05-.02,.06-.33,.58-.15,1.04,.33,1.43,.06,.04,.1,.1,.15,.14,.27,.26,.54,.52,.82,.79-.29,.29-.57,.56-.81,.85-.13,.15-.22,.35-.24,.55-.04,.31,.15,.59,.44,.71,.31,.13,.59,.08,.82-.15,.29-.28,.58-.59,.87-.9,.38,.38,.74,.73,1.1,1.07,.42,.4,.67,.43,1.18,.2,.09-.04,.18-.08,.3-.13,.03,.12,.05,.21,.06,.3,.28,1.38,.55,2.76,.83,4.14,.14,.65,.7,.89,1.25,.51,.49-.33,.99-.68,1.48-1.04,1.11-.84,2.09-1.82,2.81-3.02,.9-1.52,1.28-3.12,.72-4.85-.03-.07,.02-.19,.07-.24,.49-.43,.99-.84,1.48-1.28,1.1-.98,1.93-2.16,2.51-3.52,.82-1.86,1.11-3.8,1.04-5.79Zm-16.61,8.66c-1.17-.19-2.38-.4-3.62-.6,1.03-1.49,2.15-2.82,3.82-3.56,.73-.32,1.59-.43,2.15-.3-.77,1.48-1.55,2.96-2.35,4.46Zm10.23,4.31c-.15,.95-.57,1.77-1.14,2.52-.71,.93-1.58,1.67-2.54,2.38-.26-1.27-.5-2.51-.75-3.72,1.48-.85,2.93-1.68,4.39-2.52,.11,.42,.11,.89,.04,1.34Zm4.52-9.44c-.32,1.28-.82,2.46-1.64,3.51-.63,.8-1.38,1.48-2.17,2.11-2.17,1.69-4.57,3-7.04,4.17-.12,.05-.2,.06-.3-.05-.22-.23-.46-.45-.69-.67-.02-.01-.03-.04-.05-.08,.06-.06,.13-.12,.19-.19,1.31-1.36,2.63-2.72,3.93-4.08,.38-.39,.31-.95-.13-1.21-.31-.18-.68-.12-.96,.16-.79,.81-1.58,1.63-2.36,2.44-.58,.61-1.17,1.21-1.78,1.84-.28-.28-.56-.52-.81-.79-.04-.05-.03-.19,.01-.26,.61-1.29,1.21-2.59,1.86-3.88,.64-1.27,1.4-2.47,2.28-3.6,.82-1.06,1.73-2.04,2.9-2.7,.76-.43,1.55-.77,2.39-.99,.08-.03,.2,.04,.27,.1,1.04,.99,2.06,1.98,3.09,2.98,.31,.29,.61,.6,.93,.89,.1,.1,.13,.19,.09,.31Zm.29-1.65c-1.03-.99-2.03-1.95-3.03-2.93v-.08c.99-.03,1.99-.06,2.99-.09,.14,1.07,.13,2.07,.04,3.1Z"/><path class="cls-6" d="M81,21.44c-.32-.29-.62-.59-.93-.89-1.03-.99-2.06-1.99-3.09-2.98-.06-.06-.19-.13-.27-.1-.84,.22-1.63,.56-2.38,.99-1.18,.67-2.09,1.64-2.9,2.7-.87,1.13-1.63,2.33-2.28,3.6-.65,1.29-1.25,2.59-1.86,3.88-.03,.07-.05,.21,0,.26,.24,.27,.52,.52,.8,.79,.61-.63,1.19-1.24,1.78-1.84,.79-.82,1.58-1.63,2.36-2.44,.29-.29,.65-.35,.96-.16,.44,.27,.52,.82,.14,1.21-1.31,1.36-2.64,2.72-3.94,4.08-.06,.06-.12,.13-.18,.19,.03,.05,.04,.06,.04,.08,.23,.22,.47,.44,.69,.68,.1,.1,.18,.09,.3,.04,2.48-1.17,4.88-2.47,7.04-4.17,.8-.63,1.54-1.3,2.17-2.1,.82-1.05,1.31-2.23,1.64-3.51,.02-.13-.01-.22-.1-.31Zm-2.34,2.11c-1.01,1.03-2.64,1.05-3.66,.07-1.03-.98-1.04-2.62-.06-3.66,.97-1.01,2.61-1.04,3.64-.05,1.02,.98,1.06,2.64,.08,3.64Z"/><path class="cls-48" d="M81.37,20.09c-1.03-.99-2.03-1.95-3.03-2.93v-.08c.99-.03,1.99-.05,2.99-.09,.14,1.06,.13,2.07,.04,3.1Z"/><path class="cls-48" d="M68.68,22.41c-.78,1.48-1.56,2.97-2.35,4.47-1.17-.2-2.38-.4-3.62-.6,1.03-1.48,2.15-2.82,3.82-3.56,.73-.34,1.59-.44,2.15-.31Z"/><path class="cls-48" d="M75.42,33.7c-.71,.93-1.58,1.67-2.54,2.38-.26-1.27-.5-2.51-.75-3.72,1.48-.85,2.93-1.68,4.39-2.52,.13,.42,.11,.88,.04,1.34-.15,.95-.57,1.77-1.14,2.52Z"/><path class="cls-57" d="M78.58,19.92c-1.03-.98-2.67-.96-3.64,.06-.99,1.04-.96,2.66,.06,3.66,1.02,.99,2.65,.95,3.66-.07,.97-1.01,.93-2.67-.08-3.64Zm-.83,2.81c-.51,.53-1.36,.53-1.91,.03-.55-.53-.56-1.41,0-1.96,.51-.52,1.38-.53,1.9-.01,.54,.53,.54,1.39,.01,1.94Z"/><path class="cls-46" d="M77.75,22.72c-.51,.53-1.36,.53-1.91,.03-.55-.53-.56-1.41,0-1.96,.51-.52,1.38-.53,1.9-.01,.54,.53,.55,1.39,.01,1.94Z"/><path class="cls-6" d="M105.1,68.24s1.84-4.67,6.16-3.02,4.98,4.17,4.98,5.51-2.67,11.41-4.69,11.18c-2.03-.24-6.44-13.67-6.44-13.67Z"/><path class="cls-57" d="M112.14,63.74c1.83,.73,3.32,2.05,4.24,3.73,.91,1.7,1.1,3.67,.8,5.42-.04,.22-.05,.45-.11,.66l-.18,.64-.18,.64c-.05,.21-.16,.41-.23,.6-.17,.4-.32,.8-.51,1.19l-.6,1.13c-.18,.38-.42,.73-.66,1.08l-.69,1.05c-.49,.67-1.02,1.32-1.53,1.97-.21,.27-.59,.32-.86,.11-.26-.2-.31-.56-.14-.82l.03-.05c.44-.66,.91-1.33,1.33-1.99l.59-1.04c.19-.35,.39-.69,.54-1.06l.48-1.07c.14-.36,.25-.73,.38-1.1,.05-.19,.13-.36,.17-.55l.11-.56,.11-.55c.04-.19,.04-.38,.05-.55,.15-1.47-.13-2.9-.85-4.05-.72-1.13-1.91-2.01-3.15-2.4h-.02c-.69-.22-1.07-.96-.86-1.64,.21-.69,.95-1.07,1.63-.86,.04,.05,.07,.05,.1,.06Z"/><path class="cls-57" d="M60.44,57.59l-13.45-31.33,.98-.56c8.9-5.08,11.58-8.53,14.42-12.2,.97-1.24,1.97-2.54,3.23-3.91,12.4-13.52,25.95-3.97,26.08-3.87l-1.48,2.05c-.48-.35-11.89-8.32-22.74,3.52-1.19,1.3-2.16,2.55-3.1,3.76-2.77,3.57-5.61,7.26-14.19,12.28l11.8,27.47c2.17-.6,8.09-3,14.33-12.03,8.16-11.8,23.97-7.33,24.13-7.28l-.71,2.42c-.57-.17-14.22-4-21.33,6.3-8.55,12.38-16.7,13.27-17.04,13.3l-.92,.08Z"/><path class="cls-67" d="M99.55,36.08c-.38-.33-2.45-.45-5.2-.21h-.01c-4.15,.35-9.84,1.51-13.55,3.92t-.02,.01c-1.4,.91-2.51,2.01-3.15,3.3,0,0,0,0,0,0-.8,1.61-2.07,3.17-3.56,4.61-4.9,4.76-12.14,8.3-12.43,8.44h-.01l-2.6-5.12-.6-1.18s.03,0,.09-.01c1.02-.16,10.79-1.95,16.93-12.62,1.48-2,1.66-4.68,.45-6.86l-10.42-18.73c.74-.94,.17-.23,1.09-1.23,1.95-2.13,2.65-2.61,4.57-3.68l10.52,19.8c1.25,2.35,3.83,3.68,6.46,3.31,2.11-.29,3.87-.59,4.46-1.44,1.83-2.65-4.91-23.43-4.91-23.43,0,0,.03,.01,.03,.02,.05,.02,.09,.04,.14,.06h.01c3.65,2.01,11.72,31.03,11.72,31.03Z"/><path class="cls-57" d="M121.45,102.19c-.26,0-.53-.08-.76-.25-.27-.19-6.65-4.97-13.23-14.88-6.85-10.31-6.28-19.03-2.17-22.32,3.84-3.07,9.68-1.19,15.63,5.04,15.36,16.06,27.65,19.16,27.76,19.19,.67,.16,1.1,.84,.93,1.53-.16,.67-.84,1.09-1.52,.94-.52-.13-13.07-3.24-29.01-19.91-4.88-5.1-9.56-6.94-12.23-4.81-3.17,2.54-3.04,10.32,2.7,18.95,6.33,9.51,12.57,14.19,12.63,14.25,.56,.42,.68,1.2,.27,1.76-.24,.33-.62,.51-1.01,.51Z"/><path class="cls-6" d="M188.2,78.75c-9.57,9.46-11.14,8.45-13.77,8.99-2.17,.44-9.61,1.33-15.47,.1-6.57-1.37-16.66-7.1-20.54-16.06-.61-1.42-1.14-2.84-1.57-4.29-5.81-19.11,3.54-39.94,22.31-48.06,3.89-1.68,7.9-2.69,11.9-3.09,.47-.04,.94-.08,1.41-.11,1.26-.08,2.52-.1,3.76-.05,.17,0,.34,.01,.51,.02,.82,.41,1.61,.83,2.39,1.3,.84,.49,1.67,1.02,2.47,1.57,.41,.29,.16,.92-.33,.85-1.22-.17-2.45-.27-3.69-.31-1.15-.04-2.31-.02-3.47,.05-.43,.03-.86,.06-1.3,.11-3.69,.36-7.4,1.3-10.99,2.85-17.18,7.43-27.75,27.38-21.2,44.15,.56,1.43,1.24,2.82,2.05,4.2,7.3,12.33,19.6,14.1,29.49,12.8,8.91-1.17,15.85-4.89,16.06-5.01Z"/><path class="cls-57" d="M165.86,88.67c-2.27,0-4.69-.16-6.94-.63-7.29-1.53-17.01-7.7-20.67-16.18-.61-1.42-1.14-2.86-1.57-4.31-5.91-19.45,3.73-40.2,22.42-48.28,3.82-1.66,7.84-2.7,11.95-3.1,.47-.04,.94-.08,1.42-.11,1.23-.08,2.51-.1,3.78-.05,.17,0,.34,.01,.51,.02l.07,.02c.84,.42,1.66,.86,2.4,1.3,.88,.51,1.71,1.04,2.48,1.58,.26,.18,.35,.49,.23,.77-.11,.29-.39,.46-.7,.42-1.21-.17-2.44-.27-3.68-.31-1.15-.03-2.31-.02-3.45,.06-.49,.03-.9,.06-1.29,.1-3.74,.37-7.43,1.33-10.94,2.84-17.74,7.67-27.41,27.78-21.11,43.91,.56,1.42,1.24,2.83,2.04,4.17,7.52,12.71,20.09,13.93,29.31,12.71,8.82-1.17,15.71-4.83,16-4.99l1.14-.61-.92,.91c-8.37,8.27-10.66,8.58-12.89,8.88-.34,.04-.65,.09-.98,.16-1.08,.22-4.59,.73-8.6,.73Zm9.08-72.32c-.83,0-1.66,.03-2.46,.08-.47,.03-.93,.06-1.4,.11-4.07,.4-8.05,1.43-11.84,3.07-18.51,8.01-28.06,28.57-22.2,47.83,.43,1.43,.95,2.86,1.57,4.27,3.61,8.35,13.21,14.46,20.41,15.96,6.15,1.29,13.71,.25,15.39-.1,.35-.07,.68-.11,1.01-.16,2.08-.28,4.24-.57,11.83-7.95-2.3,1.1-8.09,3.58-15.07,4.51-9.32,1.23-22.04,0-29.68-12.89-.81-1.36-1.49-2.78-2.06-4.22-6.37-16.31,3.38-36.64,21.3-44.39,3.54-1.53,7.26-2.49,11.04-2.87,.39-.04,.81-.08,1.31-.1,1.15-.07,2.33-.09,3.49-.05,1.25,.04,2.49,.14,3.72,.31,.16,.02,.27-.08,.3-.18s.04-.24-.11-.33c-.77-.53-1.59-1.07-2.46-1.57-.73-.44-1.53-.86-2.35-1.28-.15-.01-.3-.02-.45-.02-.43-.02-.86-.03-1.29-.03Z"/><g class="cls-7"><g class="cls-10"><g><g class="cls-8"><path class="cls-42" d="M188.2,78.75c-9.57,9.46-11.14,8.45-13.77,8.99-2.17,.44-9.61,1.33-15.47,.1-6.57-1.37-16.66-7.1-20.54-16.06-.61-1.42-1.14-2.84-1.57-4.29-.42-1.39-.77-2.79-1.03-4.19,1.43,.68,2.82,1.23,4.13,1.63,.19,.61,.41,1.22,.65,1.83,.56,1.42,1.24,2.82,2.05,4.2,7.3,12.32,19.6,14.1,29.49,12.79,8.92-1.18,15.85-4.9,16.06-5.01Z"/></g><g class="cls-28"><path class="cls-57" d="M165.86,88.67c-2.27,0-4.69-.16-6.94-.63-7.29-1.53-17.01-7.7-20.67-16.18-.61-1.42-1.14-2.86-1.57-4.31-.43-1.41-.77-2.82-1.03-4.2l-.06-.36,.32,.16c1.4,.67,2.78,1.21,4.11,1.63l.09,.03,.03,.09c.2,.62,.41,1.23,.64,1.83,.56,1.42,1.24,2.83,2.04,4.17,7.52,12.71,20.09,13.93,29.31,12.71,8.82-1.17,15.71-4.83,16.01-4.99l1.13-.61-.92,.91c-8.37,8.27-10.67,8.58-12.89,8.88-.33,.04-.65,.09-.98,.16-1.1,.22-4.61,.73-8.62,.73Zm-29.78-25.04c.24,1.26,.57,2.54,.95,3.82,.43,1.43,.95,2.86,1.57,4.27,3.61,8.35,13.21,14.46,20.41,15.96,6.15,1.29,13.71,.25,15.39-.1,.35-.07,.68-.11,1.01-.16,2.08-.28,4.24-.57,11.83-7.95-2.3,1.1-8.09,3.58-15.07,4.51-9.32,1.23-22.04,0-29.68-12.89-.81-1.36-1.49-2.78-2.06-4.22-.22-.57-.43-1.15-.62-1.76-1.21-.39-2.46-.88-3.73-1.47Z"/></g></g></g></g><path class="cls-57" d="M165.86,89.58c-2.33,0-4.82-.17-7.12-.65-6.23-1.3-17.05-6.83-21.34-16.72-4.34-10.03-4.52-21.16-.48-31.32,4.03-10.17,11.77-18.14,21.8-22.48,3.92-1.69,8.04-2.76,12.23-3.17,.48-.05,.95-.08,1.43-.11,1.26-.08,2.56-.1,3.88-.06,.17,0,.34,0,.52,.02h.23s.21,.11,.21,.11c.84,.42,1.68,.87,2.46,1.33,.86,.51,1.72,1.06,2.54,1.62,.6,.42,.84,1.19,.58,1.88-.27,.68-.97,1.1-1.69,1-1.18-.16-2.38-.26-3.58-.3-1.11-.04-2.24-.02-3.38,.05-.42,.03-.83,.06-1.25,.11-3.67,.36-7.25,1.29-10.67,2.77-9.82,4.25-17.64,12.79-20.9,22.84-2.72,8.37-1.91,16.86,2.27,23.92,7.27,12.28,19.45,13.44,28.39,12.26,8.1-1.07,14.47-4.26,15.67-4.88l.83-.44,.6,.73,.58,.75-.65,.69c-5.06,5.43-11.45,8.72-14.38,9.32-1.11,.22-4.7,.73-8.8,.73Zm-6.67-2.82c5.41,1.13,12.58,.4,15.03-.1,1.68-.35,4.83-1.82,8.13-4.21-2.77,.96-6.23,1.92-10.05,2.43-7.87,1.04-22.3,.69-30.6-13.34-4.51-7.61-5.39-16.76-2.46-25.74,3.46-10.66,11.74-19.7,22.15-24.19,3.63-1.57,7.44-2.56,11.33-2.94,.38-.04,.8-.08,1.34-.11,1.2-.07,2.41-.1,3.58-.05,.38,0,.74,.03,1.12,.05-.06-.04-.11-.06-.16-.1-.68-.4-1.39-.79-2.11-1.15-.08,0-.16-.01-.24-.01-1.25-.03-2.48-.02-3.67,.06-.45,.03-.92,.06-1.36,.11-3.97,.39-7.86,1.4-11.57,3-9.48,4.1-16.81,11.66-20.62,21.27-3.81,9.6-3.64,20.13,.46,29.61,3.9,9.05,14.17,14.27,19.72,15.43Z"/><path class="cls-6" d="M139.32,55.23c.54,.54,1.02,1.13,1.45,1.76,.42,.64,.78,1.31,1.07,2.02,.29,.7,.52,1.43,.66,2.18,.15,.75,.22,1.51,.22,2.27s-.07,1.52-.22,2.27c-.15,.74-.37,1.47-.66,2.18-.29,.7-.65,1.38-1.07,2.01-.43,.64-.91,1.22-1.45,1.77-.54,.54-1.13,1.02-1.77,1.44-.64,.43-1.31,.79-2.01,1.08-.71,.29-1.43,.51-2.18,.66s-1.51,.22-2.27,.22-1.52-.07-2.27-.22-1.48-.37-2.18-.66c-.71-.29-1.38-.65-2.02-1.08-.64-.42-1.22-.91-1.76-1.44s-1.03-1.13-1.45-1.77c-.43-.64-.79-1.31-1.08-2.01-.29-.71-.51-1.43-.66-2.18-.15-.75-.22-1.51-.22-2.27s.08-1.52,.22-2.27c.15-.75,.37-1.48,.66-2.18,.29-.71,.65-1.38,1.08-2.01,.42-.64,.91-1.22,1.45-1.77,.54-.54,1.13-1.02,1.76-1.45,.64-.42,1.31-.78,2.02-1.07,.7-.29,1.43-.52,2.18-.66,.75-.15,1.51-.22,2.27-.22s1.52,.07,2.27,.22c.74,.15,1.47,.37,2.18,.66,.7,.29,1.38,.65,2.01,1.07,.64,.43,1.22,.91,1.77,1.45Z"/><path class="cls-57" d="M131.11,76.37c-1.6,0-3.21-.3-4.76-.91-3.21-1.27-5.72-3.71-7.09-6.88-2.83-6.53,.19-14.13,6.72-16.96,3.17-1.36,6.67-1.43,9.88-.15,3.2,1.27,5.72,3.71,7.09,6.88,1.36,3.16,1.42,6.67,.15,9.87-1.27,3.21-3.71,5.72-6.88,7.09-1.65,.69-3.39,1.06-5.12,1.06Zm-9.53-8.8c1.1,2.54,3.13,4.51,5.7,5.53,2.58,1.02,5.4,.97,7.95-.13,2.54-1.09,4.51-3.13,5.53-5.7,1.02-2.57,.97-5.39-.13-7.94-1.1-2.54-3.13-4.51-5.7-5.53-2.58-1.02-5.4-.97-7.94,.13-2.54,1.1-4.51,3.13-5.53,5.7-1.02,2.58-.98,5.4,.12,7.94Z"/><path class="cls-6" d="M138.67,64.88c0,.61-.06,1.22-.18,1.82-.12,.6-.3,1.19-.53,1.76-.24,.57-.53,1.11-.87,1.62-.34,.51-.73,.98-1.16,1.42-.44,.43-.91,.82-1.42,1.16-.51,.34-1.05,.63-1.61,.86s-1.16,.41-1.76,.53c-.6,.12-1.21,.18-1.83,.18s-1.22-.06-1.83-.18-1.19-.3-1.76-.53-1.11-.52-1.62-.86-.98-.73-1.42-1.16-.82-.91-1.17-1.42c-.34-.51-.63-1.05-.86-1.62s-.41-1.15-.53-1.76c-.12-.6-.18-1.21-.18-1.82s.06-1.22,.18-1.83,.3-1.19,.53-1.76,.53-1.11,.86-1.62c.34-.51,.73-.98,1.17-1.42,.43-.44,.91-.82,1.42-1.17,.51-.34,1.05-.63,1.62-.86s1.15-.41,1.76-.53,1.21-.18,1.83-.18,1.22,.06,1.83,.18c.6,.12,1.19,.3,1.76,.53s1.1,.53,1.61,.86c.52,.34,.98,.73,1.42,1.17s.82,.91,1.16,1.42c.34,.51,.63,1.05,.87,1.62,.23,.57,.41,1.15,.53,1.76s.18,1.21,.18,1.83Z"/><path class="cls-57" d="M129.32,74.43c-1.19,0-2.39-.22-3.52-.68-2.37-.94-4.23-2.74-5.24-5.08-1.01-2.33-1.06-4.93-.11-7.3,.94-2.38,2.74-4.23,5.08-5.24s4.93-1.05,7.31-.11c2.37,.94,4.23,2.74,5.24,5.08,1.01,2.34,1.06,4.93,.12,7.31-.94,2.37-2.75,4.23-5.09,5.24-1.22,.53-2.51,.79-3.79,.79Zm-8.43-5.91c.97,2.24,2.77,3.98,5.04,4.89,2.28,.91,4.78,.87,7.02-.1,2.25-.97,3.99-2.77,4.89-5.04,.91-2.28,.87-4.77-.1-7.02s-2.77-3.98-5.04-4.89c-2.28-.9-4.77-.86-7.02,.11s-3.99,2.76-4.89,5.04-.87,4.78,.1,7.03Z"/><g class="cls-69"><g class="cls-72"><g class="cls-33"><g><path class="cls-42" d="M137.39,68.89c1.03-1.76,1.42-3.69,1.25-5.58-2.79,3.86-8.11,5.04-12.31,2.58-2.71-1.58-4.33-4.33-4.58-7.23-.18,.24-.35,.49-.5,.76-2.61,4.46-1.11,10.19,3.35,12.81,4.45,2.62,10.18,1.13,12.79-3.34Z"/><path class="cls-57" d="M129.3,73.71c-1.64,0-3.29-.43-4.81-1.31-2.2-1.29-3.77-3.35-4.41-5.83-.65-2.47-.29-5.04,1-7.23,.17-.29,.34-.55,.52-.78l.29-.4,.04,.49c.27,2.95,1.95,5.59,4.5,7.09,4.1,2.4,9.28,1.31,12.06-2.54l.29-.4,.05,.49c.19,1.99-.26,3.96-1.28,5.69-1.78,3.03-4.98,4.72-8.26,4.72Zm-7.69-14.53c-.07,.1-.14,.22-.21,.34-1.24,2.11-1.57,4.59-.95,6.95,.62,2.37,2.13,4.35,4.24,5.59,4.37,2.56,9.99,1.09,12.55-3.28,.9-1.52,1.32-3.23,1.26-4.97-2.95,3.67-8.12,4.65-12.25,2.23-2.51-1.45-4.22-4-4.63-6.87Z"/></g></g></g></g><path class="cls-57" d="M129.32,75.35c-1.3,0-2.61-.24-3.86-.74-2.6-1.03-4.64-3.01-5.76-5.58-2.3-5.3,.15-11.47,5.45-13.77,2.57-1.1,5.41-1.15,8.02-.13,2.6,1.03,4.65,3.02,5.76,5.58,2.29,5.3-.15,11.47-5.46,13.77-1.34,.57-2.74,.86-4.15,.86Zm-7.57-7.21c.88,2.02,2.48,3.58,4.53,4.39,2.05,.82,4.29,.78,6.31-.09,4.17-1.81,6.1-6.67,4.3-10.84-.88-2.02-2.48-3.58-4.54-4.4-2.05-.81-4.29-.78-6.31,.1-4.17,1.81-6.1,6.67-4.29,10.84Z"/><path class="cls-46" d="M174.21,110.82c-.01,.34-.55,3.11-.55,3.11,0,0-.88-.02-1.96-.05-1.34-.03-2.41-1.44-2.37-3.17,.03-1.72,1.16-3.09,2.51-3.06,.91,.02,1.96,.05,1.96,.05,0,0,.42,2.57,.42,3.13Z"/><path class="cls-57" d="M174.18,114.58l-2.49-.06c-1.69-.03-3.04-1.74-2.99-3.81,.05-2.06,1.47-3.71,3.16-3.68l2.48,.05,.09,.52c.07,.43,.44,2.66,.42,3.24,0,.36-.39,2.36-.56,3.21l-.1,.53Zm-2.39-6.29c-.98,0-1.81,1.09-1.83,2.45-.03,1.37,.77,2.49,1.76,2.52l1.43,.03c.22-1.14,.42-2.28,.43-2.48,.01-.31-.17-1.53-.33-2.48l-1.43-.03h-.02Z"/><path class="cls-46" d="M173.79,107.69c.33,0,.64,.09,.93,.26,.3,.17,.56,.4,.78,.69,.22,.3,.39,.64,.51,1.02,.12,.39,.17,.79,.16,1.2,0,.42-.08,.81-.21,1.19-.13,.38-.32,.71-.55,1-.23,.29-.51,.51-.81,.66s-.61,.22-.94,.22c-.33,0-.64-.09-.93-.26-.3-.17-.56-.4-.78-.69-.22-.3-.39-.64-.51-1.02-.12-.39-.17-.79-.16-1.2,0-.42,.08-.81,.21-1.19,.14-.38,.32-.71,.55-1,.23-.29,.51-.51,.81-.66s.61-.22,.94-.22Z"/><path class="cls-57" d="M173.7,114.56h-.05c-.85-.02-1.63-.44-2.2-1.2-.53-.71-.81-1.64-.8-2.61,.04-2.06,1.48-3.71,3.15-3.68,.85,.02,1.63,.44,2.2,1.2,.53,.71,.82,1.64,.8,2.61-.02,.97-.33,1.89-.9,2.58-.59,.71-1.36,1.1-2.2,1.1Zm.05-6.23c-.98,0-1.81,1.09-1.83,2.45-.02,.69,.18,1.33,.54,1.82,.33,.44,.76,.69,1.21,.7,.46,0,.9-.22,1.24-.65,.38-.47,.6-1.11,.62-1.81,.02-.69-.18-1.34-.54-1.82-.33-.44-.76-.69-1.21-.7,0,0-.02,0-.03,0Z"/><g class="cls-32"><g class="cls-15"><g class="cls-31"><path class="cls-6" d="M158.76,49.9c.06,.4,.09,.8,.09,1.21,0,.41-.04,.8-.11,1.2-.07,.39-.17,.77-.31,1.14-.14,.36-.31,.71-.5,1.04-.2,.32-.42,.62-.67,.89s-.52,.51-.81,.71c-.3,.2-.6,.38-.93,.51-.33,.14-.66,.23-1.01,.29-.34,.06-.69,.07-1.04,.05-.35-.03-.7-.09-1.04-.19-.34-.1-.68-.24-1-.42-.32-.18-.63-.39-.92-.63-.29-.24-.56-.52-.81-.82s-.46-.63-.66-.98c-.19-.35-.35-.71-.48-1.1-.14-.38-.23-.78-.3-1.18-.07-.4-.1-.8-.09-1.21,0-.41,.04-.8,.11-1.2,.07-.39,.17-.77,.31-1.14,.14-.36,.3-.71,.5-1.03,.19-.33,.42-.63,.67-.89,.25-.27,.52-.51,.82-.71,.29-.21,.6-.38,.93-.51,.32-.14,.66-.23,1-.29,.34-.06,.69-.07,1.04-.05,.35,.03,.7,.09,1.04,.19,.34,.1,.68,.24,1,.42,.32,.18,.63,.39,.92,.64,.29,.24,.56,.52,.8,.82,.24,.3,.46,.63,.66,.98,.19,.35,.35,.71,.49,1.1,.13,.38,.23,.78,.3,1.18Z"/></g></g></g><g class="cls-18"><g class="cls-50"><g class="cls-23"><path class="cls-6" d="M155.62,63.58c.1,.33,.15,.66,.13,1-.02,.33-.09,.65-.22,.94-.13,.3-.3,.55-.53,.75-.22,.2-.47,.35-.76,.44-.28,.08-.57,.1-.87,.06-.3-.05-.58-.16-.85-.33-.27-.17-.51-.39-.71-.66-.2-.27-.35-.57-.45-.9-.1-.33-.15-.66-.13-1,.02-.34,.09-.65,.21-.95,.13-.29,.31-.54,.53-.74,.22-.21,.47-.35,.76-.44,.28-.09,.57-.1,.87-.06,.3,.05,.58,.16,.85,.33s.51,.4,.7,.67c.2,.27,.35,.57,.45,.9Z"/></g></g></g><path class="cls-57" d="M164.27,121.76c-.34,0-.63-.28-.63-.63v-8.15c0-.52-.42-.94-.94-.94-1.21,0-2.21-.99-2.21-2.2v-9.36c0-.35,.29-.63,.63-.63s.63,.28,.63,.63v9.36c0,.52,.43,.94,.94,.94,1.21,0,2.21,.99,2.21,2.2v8.15c0,.34-.28,.63-.63,.63Z"/><path class="cls-6" d="M172.31,142.66c-.48,4.8-2.26,11.53-8.04,14.14-9.16,4.13-11.53-9.55-12.01-10.51-.49-.96-2.77-7.59-13.62-8.69-10.85-1.1-10.57-3.86-10.57-3.86l9.63-5.34,.28-.15,9.03-1.48s7.24-2.29,15.7-.67c8.46,1.64,9.45,10.59,9.65,11.32,.07,.27,.24,2.42-.04,5.23Z"/><path class="cls-67" d="M172.31,142.66c-.48,4.8-2.26,11.53-8.04,14.14-9.16,4.13-11.53-9.55-12.01-10.51-.49-.96-2.77-7.59-13.62-8.69-10.85-1.1-10.57-3.86-10.57-3.86l9.63-5.34c5.04,.88,12.58,3.11,15.61,5.34,4.7,3.44,5.35,8.72,6.51,10.85,1.76,3.25,6.12,6.05,12.49-1.93Z"/><path class="cls-57" d="M161.21,158.79c-.95,0-1.86-.19-2.71-.56-3.1-1.36-4.35-4.39-5.66-7.59-2.2-5.34-4.68-11.39-16.84-12.03-4.57-.24-8.28-2.09-11.02-5.5-8.31-10.33-4.91-31.51-4.77-32.4,.12-.69,.77-1.15,1.45-1.04,.69,.11,1.15,.76,1.04,1.45-.04,.21-3.35,20.96,4.24,30.41,2.3,2.87,5.3,4.36,9.18,4.56,13.76,.72,16.82,8.16,19.05,13.58,1.21,2.95,2.17,5.29,4.34,6.23,1.34,.59,3.04,.41,4.63-.51,3.51-2,5.98-7.06,6.79-13.88,.52-4.36-.42-7.91-2.78-10.57-2.81-3.16-6.94-4.29-9.64-4.29-.7,0-1.27-.57-1.27-1.27s.57-1.27,1.27-1.27c3.22,0,8.16,1.34,11.53,5.13,2.82,3.18,4,7.52,3.4,12.55-1.24,10.43-5.58,14.35-8.05,15.78-1.35,.8-2.79,1.19-4.18,1.19Z"/><path class="cls-57" d="M149.5,143.51c-.27,0-.53-.1-.74-.28-.46-.41-.49-1.12-.09-1.58,.32-.35,7.89-8.73,15.99-9.03,3.13-.11,5.91,.98,8.26,3.26,.44,.43,.45,1.14,.03,1.58-.42,.44-1.13,.45-1.57,.03-1.93-1.87-4.1-2.72-6.64-2.63-7.16,.27-14.34,8.21-14.41,8.29-.21,.24-.52,.37-.82,.37Z"/><path class="cls-6" d="M120.52,108.31c4.99,.75,16.34,2.13,26.01,.73,1.59-.23,3.01,1.02,2.97,2.63v.19c-.03,1.26-.94,2.31-2.18,2.52-10.02,1.64-22.32,.86-27.56,.41-1.4-.13-2.43-1.38-2.28-2.77l.17-1.51c.14-1.41,1.44-2.42,2.86-2.2Z"/><path class="cls-57" d="M132.99,115.55c-5.59,0-10.56-.35-13.25-.59-.72-.06-1.38-.41-1.85-.97-.46-.56-.67-1.27-.59-2l.17-1.51c.08-.73,.45-1.39,1.04-1.84,.58-.45,1.31-.64,2.05-.53,4.54,.69,16.18,2.15,25.95,.74,.81-.12,1.64,.12,2.25,.67,.61,.54,.95,1.32,.94,2.14v.19c-.03,1.34-1.01,2.48-2.34,2.7-4.6,.76-9.7,1-14.36,1Zm-12.86-7.09c-.51,0-1,.17-1.41,.48-.51,.39-.82,.95-.9,1.58l-.17,1.51c-.07,.63,.11,1.24,.51,1.73,.4,.48,.97,.79,1.59,.84,4.92,.43,17.43,1.24,27.51-.41,1.15-.19,2.01-1.17,2.02-2.34v-.19c.02-.71-.28-1.39-.81-1.86s-1.24-.68-1.95-.58c-9.81,1.41-21.49-.05-26.06-.73-.1-.02-.22-.03-.34-.03Z"/><path class="cls-67" d="M149.49,111.66v.19c-.03,1.26-.94,2.31-2.18,2.52-10.02,1.64-22.32,.86-27.55,.41-1.4-.13-2.43-1.38-2.28-2.77l.16-1.51s.01-.08,.02-.11c.35,.82,1.13,1.43,2.09,1.52,5.23,.45,17.54,1.23,27.55-.41,.78-.13,1.43-.59,1.81-1.23,.26,.41,.4,.89,.38,1.4Z"/><path class="cls-57" d="M132.99,116.48c-5.63,0-10.62-.35-13.32-.58-.98-.09-1.86-.55-2.49-1.31-.62-.76-.91-1.72-.8-2.69l.17-1.51c.11-.99,.6-1.86,1.39-2.48,.79-.61,1.76-.86,2.74-.71,4.51,.68,16.03,2.12,25.68,.73,1.08-.16,2.18,.17,2.99,.9,.81,.73,1.28,1.77,1.25,2.86v.19c-.04,1.8-1.35,3.3-3.12,3.59-4.65,.77-9.8,1.01-14.5,1.01Zm-12.85-7.09c-.3,0-.59,.1-.84,.29-.3,.23-.49,.58-.53,.96l-.17,1.51c-.05,.37,.07,.74,.31,1.04,.24,.29,.58,.47,.96,.51,4.88,.43,17.3,1.23,27.27-.4,.71-.11,1.23-.71,1.25-1.44v-.18c.01-.44-.17-.85-.51-1.15-.33-.29-.77-.42-1.2-.36-9.94,1.43-21.73-.04-26.33-.73-.06-.02-.14-.03-.2-.03Z"/><g class="cls-9"><path class="cls-6" d="M247.95,210.62c-4.59,0-8.33,3.74-8.33,8.33s3.73,8.33,8.33,8.33,8.33-3.74,8.33-8.33-3.73-8.33-8.33-8.33Zm0,17.83c-5.24,0-9.5-4.26-9.5-9.5s4.26-9.49,9.5-9.49,9.5,4.26,9.5,9.49-4.26,9.5-9.5,9.5"/></g><path class="cls-6" d="M246.29,218.7h1.79c.58,0,1.04-.15,1.38-.44,.33-.3,.49-.7,.49-1.21s-.16-.95-.46-1.24c-.31-.29-.76-.44-1.36-.45h-1.83v3.35Zm1.94,1.4h-1.94v3.85h-1.74v-10.01h3.52c1.16,0,2.05,.26,2.68,.78,.63,.52,.94,1.27,.94,2.25,0,.67-.16,1.23-.48,1.68s-.77,.8-1.35,1.04l2.25,4.17v.09h-1.86l-2.01-3.85"/><path class="cls-6" d="M34.63,248.32c-1.53-8.98-8.1-14.09-17.21-13.39-3.58,.3-6.58,1.35-9.4,3.29l-.53,.35-.35-.47c-.12-.18-.23-.35-.3-.47-.18-.23-.29-.41-.41-.53-.82-.76-1.82-1.17-2.76-1.17-.35,0-.7,.06-.99,.18-1.29,.41-2.18,1.47-2.47,2.93-.23,.94-.23,1.94-.18,2.94,.06,3.94,.41,7.87,.77,11.75,.41,4.11,.82,8.34,.88,12.57,0,2.35-.18,4.76-.35,7.1-.06,1.18-.11,2.41-.18,3.58-.11,1.88-.11,3.41,1.23,4.11l.18,.18c.59,.7,2.06,1.29,3.64,1,1.18-.18,2.76-.88,3.76-3.23,.47-1.06,.47-2.47,.53-3.76v-.53c.06-1.29-.06-3.52-.11-4.99l-.12-1.47h.71c.94,0,1.88,0,2.88,.06,1.88,.12,3.82,.18,5.34-.06,10.57-1.82,17.09-10.22,15.45-19.97Zm-12.98,7.34c-2.41,2.29-5.41,3.34-9.57,3.34-.41,0-.82,0-1.29-.06h-.59v-.65c0-3.93,.82-7.17,2.53-10.04,1.53-2.53,6.11-4.05,8.69-2.88,.99,.41,1.94,1.47,2.29,2.58,.99,2.76,.29,5.41-2.06,7.7Z"/><path class="cls-6" d="M44.72,244.86c-.12-1.53-.23-3.17-.94-4.46-.47-.94-1.82-2-2.82-2s-2.17,1.06-2.94,1.94c-.53,.7-.7,1.82-.82,2.82-.53,5.81-.99,24.37-.88,27.78,0,1.47,.23,2.94,.59,4.35,.65,2.23,2.23,3.52,4.05,3.58,1.82,.06,3.64-1.12,4.23-3.35,.59-2.53,1.06-5.11,.94-7.69-.29-7.64-.88-15.33-1.41-22.96Z"/><path class="cls-6" d="M75.61,270.58c-.88-4.05-1.53-8.22-2.41-12.33-.3-1.29-.65-2.99-1.59-3.76-2.82-2.17-5.93-4.05-9.86-3.41-6.87,1.23-13.57,8.75-14.16,16.09-.53,6.76,4.87,11.45,11.57,9.86,1.76-.47,3.41-1.47,5.05-2.29,.59-.29,1.06-.76,1.65-1.17,.29,.41,.53,.65,.7,.94,1.94,2.94,4.46,4.05,6.81,3.06,2.29-1,3-3.47,2.23-6.99Zm-17.03-2.06c-.65,.23-1.59,.29-2.17,0-.35-.18-.35-1.41-.12-1.99,1.29-3.64,3.35-6.58,7.28-8.22,.71,4.52-1.41,8.81-4.99,10.22Z"/><path class="cls-6" d="M102.26,256.96c-3.29-4.41-8.4-5.11-12.86-1.94-1.29,.94-2.47,2.05-3.82,3.23-.23-.47-.35-.77-.47-1.11-.53-1.82-1.35-3.53-3.58-3.47-2.35,.12-3.06,2.06-3.23,3.94-.41,5.4-.82,10.81-.94,16.21-.11,2.99,1.88,5.05,4.46,5.34s4.82-1.35,5.52-4.34c.94-4.17,3.23-7.64,5.82-10.93,.41-.53,.99-.88,1.82-1.64,.29,1.53,.47,2.52,.59,3.58,.41,2.76,.59,5.64,1.29,8.4,.59,2.35,2.58,3.52,4.64,3.46,1.88-.11,3.7-1.53,4.05-3.88,.94-5.99,.41-11.81-3.29-16.85Z"/><path class="cls-6" d="M130.57,253.9c-2.29-2.35-5.11-3.88-8.34-4.46-4.7-.88-8.98,1-11.63,4.94-1.99,3.05-2.82,6.46-3.11,10.04-.76,8.57,5.17,15.74,15.98,14.63,1.53-.12,3.34-1.18,4.46-2.29,2.05-2.17,1.35-4.76-1.47-5.64-1.94-.65-4.05-.7-6.05-1.06-1.06-.23-2.05-.58-3.11-.94,3.64-.65,7.16-.88,10.33-2,6.05-2.11,7.4-8.57,2.94-13.21Zm-5.23,5.64c-2.64,.29-5.34,.59-8.28,.88,.47-1.76,1.23-3.11,2.99-3.64,1.99-.59,4.46,.41,5.99,2.46-.35,.18-.53,.3-.71,.3Z"/><path class="cls-6" d="M156.99,272.17c-.7-1.82-2.23-2.41-4.05-2.23-.94,.06-1.88,.29-2.76,.41-1.47,.17-2.64-.41-2.88-1.88-.41-2.35-.59-4.7-.89-7.11,2.11,0,3.76,.12,5.35,0,2.17-.17,3.82-1.82,3.99-3.82,.18-1.99-1.17-3.88-3.34-4.4-1.35-.35-2.76-.47-4.11-.47-1.23-.06-1.64-.53-1.64-1.77,0-1.64-.06-3.34-.3-4.99-.29-2.41-1.41-3.58-2.99-3.64-1.65,0-2.7,1.17-3.17,3.58-.23,1.35-.53,2.76-.59,4.11-.11,1.58-.82,2.23-2.23,2.82-1.11,.47-2.23,1.76-2.58,2.88-.53,1.58,.65,2.82,2.11,3.41,1.17,.47,1.41,1.17,1.41,2.29,0,2.41,.12,4.82,.35,7.22,.35,3.41,1.94,6.17,4.7,8.28,3.41,2.58,9.4,2.53,12.33-.23,1.29-1.23,1.99-2.7,1.29-4.46Z"/><path class="cls-6" d="M186.76,270.58c-.88-4.05-1.53-8.22-2.41-12.33-.3-1.29-.65-2.99-1.59-3.76-2.82-2.17-5.93-4.05-9.86-3.41-6.87,1.23-13.57,8.75-14.16,16.09-.53,6.76,4.87,11.45,11.57,9.86,1.76-.47,3.41-1.47,5.05-2.29,.59-.29,1.06-.76,1.65-1.17,.29,.41,.53,.65,.7,.94,1.94,2.94,4.46,4.05,6.81,3.06,2.29-1,3-3.47,2.23-6.99Zm-17.03-2.06c-.65,.23-1.59,.29-2.17,0-.35-.18-.35-1.41-.12-1.99,1.29-3.64,3.35-6.58,7.28-8.22,.71,4.52-1.41,8.81-4.99,10.22Z"/><path class="cls-6" d="M214.88,269.76c-2.7-.06-5.46-.23-8.17,0-3.34,.35-4.93,3.05-4.05,6.28,.82,3.17,3.06,4.82,6.17,5.29,2.41,.35,4.82,.59,7.22,.59,7.46,0,13.86-5.11,15.68-12.39,.88-3.64,.06-6.88-2.64-9.4-1.47-1.41-1.41-2.23-.47-3.88,3.35-5.52,1.47-13.21-4.11-15.21-6.22-2.23-12.51-1.29-18.15,2.29-1.88,1.17-2.94,3.23-2.7,5.64,.18,2.06,1.88,3.06,3.41,1.88,3.29-2.58,7.17-2.94,11.04-2.99,1.06-.06,2.06,.65,3.05,1-.41,1.17-.47,2.76-1.29,3.46-1.82,1.47-3.93,2.53-5.99,3.64-2.82,1.53-4.11,3.58-3.64,6.11,.47,2.53,2.41,3.99,5.7,4.34,1.29,.12,2.58,.12,4.4,.23-1.35,2.7-3.23,3.17-5.46,3.11Z"/><path class="cls-6" d="M263.5,243.68c-4.05-3.93-9.57-5.93-15.51-5.76l-.53,.06-.12-.35c-.65,.11-1.23,.23-1.88,.35-1.82,.41-3.7,.82-5.46,1.35-3.29,1.06-3.88,1.94-3.99,5.52-.06,3.35-.12,6.76-.12,10.16-.11,4.93-.18,9.86-.29,14.85,0,1.23-.47,2.65-1.18,3.82-.82,1.41-1.11,2.94-.76,4.29,.29,1.11,.99,2.05,2.05,2.64,1.65,.94,3.65,1.47,5.35,1.35,7.63-.35,14.8-2.88,21.2-7.64,5.05-3.7,7.64-8.75,7.64-15.15,0-5.93-2.35-11.57-6.4-15.51Zm-8.57,21.67c-1.82,1.11-3.7,2.06-5.76,3.06-.94,.47-1.94,.94-2.94,1.46l-.88,.41-1.06-23.61,.76,.12c.53,.06,1.12,.11,1.65,.18,2.7,.35,5.46,.65,7.93,2.17,2.82,1.7,4.53,4.76,4.58,8.16,0,3.35-1.59,6.34-4.29,8.05Z"/><path class="cls-6" d="M18.81,303.8c-1.33-1.3-3.15-1.95-5.1-1.9l-.17,.02-.04-.11c-.21,.04-.4,.08-.61,.11-.6,.14-1.22,.27-1.8,.44-1.08,.35-1.28,.64-1.32,1.82-.02,1.1-.04,2.22-.04,3.34-.04,1.63-.06,3.25-.1,4.89,0,.41-.15,.87-.39,1.26-.27,.47-.37,.97-.25,1.41,.09,.37,.33,.68,.68,.87,.54,.31,1.2,.48,1.76,.45,2.52-.12,4.88-.95,6.98-2.52,1.66-1.22,2.52-2.88,2.52-4.98,0-1.95-.78-3.81-2.11-5.1Zm-2.82,7.13c-.6,.37-1.22,.68-1.89,1.01-.31,.16-.64,.31-.97,.48l-.29,.14-.35-7.77,.26,.04c.17,.02,.36,.04,.54,.06,.89,.11,1.8,.21,2.61,.71,.93,.56,1.48,1.57,1.51,2.69,0,1.1-.52,2.09-1.41,2.65Z"/><path class="cls-6" d="M27.78,305.05c-.04-.69-.16-1.29-.33-1.82-.21-.69-.71-1.1-1.45-1.12-.69-.04-1.31,.39-1.55,1.08-.17,.52-.29,1.1-.35,1.7-.07,.97-.11,1.94-.15,2.9-.02,.31-.04,.64-.04,.95h.08v.21c0,.43,0,.85-.02,1.28,0,.98-.02,2.03,.04,3.03,.04,.74,.25,1.47,.56,2.05,.25,.44,.67,.71,1.12,.71h.02c.48,0,.95-.29,1.22-.79,.18-.31,.29-.6,.31-.87l.14-1.14c.29-2.67,.6-5.43,.41-8.18Z"/><path class="cls-6" d="M40.49,311.86c-.44-1.84-1.68-3.14-3.77-3.96-.73-.31-1.45-.73-2.13-1.14l-.42-.27c-.27-.16-.41-.37-.41-.6,0-.25,.15-.46,.42-.62,.46-.27,1.03-.56,1.6-.68,1.26-.29,2.42,.1,3.19,.41,.31,.14,.56,.14,.69,.04,.2-.14,.23-.42,.21-.66-.02-.33-.11-.68-.29-.95-.43-.71-1.1-1.18-1.99-1.39-2.01-.46-3.84-.04-5.43,1.26-.81,.68-1.29,1.57-1.33,2.52-.06,.95,.33,1.91,1.08,2.67,1.08,1.1,2.26,1.84,3.61,2.24,.66,.19,1.33,.5,1.66,1.31l.1,.21-.64,.17c-.77,.23-1.48,.04-2.18-.15-.17-.06-.35-.1-.52-.14-.19-.06-.39-.08-.56-.08-.68,0-1.23,.29-1.55,.81-.39,.66-.23,1.53,.39,2.2,.58,.64,1.53,1.39,2.74,1.33,1.35-.06,2.49-.23,3.44-.56,1.7-.58,2.52-2.15,2.07-3.98Z"/><path class="cls-6" d="M51.47,313.02c-.27,.02-.54,.08-.81,.16-.21,.08-.44,.14-.66,.17-.89,.14-1.68,.23-2.42,.27-.18,.02-.35-.11-.43-.19-.08-.08-.23-.21-.23-.39-.04-.54-.04-1.1-.04-1.65v-.77h.21c.37-.02,.73-.04,1.1-.06,.89-.04,1.74-.08,2.59-.16,.41-.04,.87-.17,1.31-.39,.37-.17,.78-.54,.73-1.18-.06-.54-.39-.93-.91-1.05-.6-.14-1.3-.17-2.01-.11-.56,.06-1.14,.17-1.74,.29-.27,.06-.54,.11-.83,.15l-.25,.04v-.95c0-.51,0-.98,.02-1.47,0-.51,0-.76,.17-.93,.18-.16,.43-.16,.91-.14l.5,.04c.79,.04,1.6,.08,2.4,.04,1.26-.07,2.09-.79,2.05-1.76,0-.43-.19-.83-.52-1.12-.37-.33-.87-.53-1.45-.53h-.16c-1.21,.08-2.45,.26-3.63,.43l-.85,.11c-.29,.04-.61,.19-.87,.33-.79,.45-1.08,.97-.93,1.7,.02,.16,0,.33-.04,.48v.09c-.1,.54-.21,1.1-.31,1.66-.19,1.16-.42,2.36-.58,3.56-.21,1.41-.39,3.06,.06,4.66,.35,1.26,1.1,2.01,2.24,2.24,1.95,.41,3.77,.19,5.41-.61,.36-.18,.71-.45,1.01-.76,.44-.48,.56-1.01,.31-1.53-.31-.66-.93-.76-1.37-.72Z"/><path class="cls-6" d="M59.76,300.26c.45,.11,.7-.16,.93-.51,.43-.64,1.05-.79,1.74-.46,.48,.23,.96,.48,1.45,.7,.66,.31,1.33,.36,2.01,.17,1.47-.39,2.15-1.9,1.35-3.02-.27-.41-.66-.64-1.16-.48-.51,.14-.71,.53-.7,1.03v.48c-.29-.08-.5-.1-.69-.17-.6-.27-1.2-.6-1.8-.85-1.16-.48-2.71-.06-3.41,.97-.23,.33-.34,.79-.36,1.2-.04,.44,.17,.83,.64,.95Zm10.56,2.94c-.16-.83-.78-1.41-1.53-1.51-.8-.09-1.57,.31-1.9,1.13-.21,.54-.35,1.16-.37,1.74-.09,2.08-.15,4.17-.21,6.24,0,.23-.02,.47-.04,.68-.08,.04-.16,.06-.23,.1-.91-1.18-1.82-2.36-2.71-3.54-1.01-1.3-1.97-2.63-2.98-3.91-.31-.39-.69-.71-1.1-.95-1.06-.62-2.3-.17-2.74,.97-.11,.29-.21,.61-.23,.93-.31,3.52-.09,7.02,.31,10.52,.04,.35,.19,.69,.39,1.01,.54,.87,1.57,.81,2.01-.11,.16-.31,.25-.66,.27-.99,.09-2.03,.16-4.08,.23-6.1v-.66c.31,.23,.46,.48,.64,.73,.96,1.33,1.88,2.74,2.96,4.01,.81,.94,1.76,1.89,2.84,2.51,2.46,1.39,4.18,.37,4.29-2.45,.1-3.02,.16-6.03,.21-9.07,0-.41-.02-.85-.11-1.26Z"/><path class="cls-6" d="M80.93,302.11c-.09-.02-.19-.02-.31-.02-.19,0-.41,.02-.62,.06l-.19,.02c-2.99,.39-4.97,2.07-6.03,5.14-.64,1.84-.43,4.14,.54,5.84,.87,1.51,2.3,2.52,4.12,2.88l.06,.02c.29,.06,.58,.11,.87,.16,2.01,.23,3.59-.35,4.83-1.82l.39-.43c.31-.36,.64-.76,.95-1.12,.87-1.05,1.35-2.34,1.51-4.1-.25-4.37-2.63-5.8-6.11-6.63Zm2.59,6.94c-.08,.18-.16,.35-.23,.54-.19,.43-.39,.85-.64,1.28-.18,.29-.41,.52-.62,.76-.1,.1-.19,.19-.27,.29-.54,.58-1.28,.91-2.07,.91-.19,0-.37-.02-.56-.06-1.03-.19-1.85-.91-2.22-1.9-.54-1.51-.29-2.94,.78-4.52,.68-1.03,1.43-1.2,2.55-.62,.42,.21,.87,.43,1.43,.64,1.22,.5,1.72,1.18,1.88,2.57v.06l-.02,.06Z"/><path class="cls-6" d="M105,313.02c-.27,.02-.54,.08-.81,.16-.21,.08-.44,.14-.66,.17-.89,.14-1.68,.23-2.42,.27-.18,.02-.35-.11-.43-.19-.08-.08-.23-.21-.23-.39-.04-.54-.04-1.1-.04-1.65v-.77h.21c.37-.02,.73-.04,1.1-.06,.89-.04,1.74-.08,2.59-.16,.41-.04,.87-.17,1.31-.39,.37-.17,.78-.54,.73-1.18-.06-.54-.39-.93-.91-1.05-.6-.14-1.3-.17-2.01-.11-.56,.06-1.14,.17-1.74,.29-.27,.06-.54,.11-.83,.15l-.25,.04v-.95c0-.51,0-.98,.02-1.47,0-.51,0-.76,.17-.93,.18-.16,.43-.16,.91-.14l.5,.04c.79,.04,1.6,.08,2.4,.04,1.26-.07,2.09-.79,2.05-1.76,0-.43-.19-.83-.52-1.12-.37-.33-.87-.53-1.45-.53h-.16c-1.21,.08-2.45,.26-3.63,.43l-.85,.11c-.29,.04-.61,.19-.87,.33-.79,.45-1.08,.97-.93,1.7,.02,.16,0,.33-.04,.48v.09c-.1,.54-.21,1.1-.31,1.66-.19,1.16-.42,2.36-.58,3.56-.21,1.41-.39,3.06,.06,4.66,.35,1.26,1.1,2.01,2.24,2.24,1.95,.41,3.77,.19,5.41-.61,.36-.18,.71-.45,1.01-.76,.44-.48,.56-1.01,.31-1.53-.31-.66-.93-.76-1.37-.72Z"/><path class="cls-6" d="M120.64,305.05c-.04-.69-.16-1.29-.33-1.82-.21-.69-.71-1.1-1.45-1.12-.69-.04-1.31,.39-1.55,1.08-.17,.52-.29,1.1-.35,1.7-.07,.97-.11,1.94-.15,2.9-.02,.31-.04,.64-.04,.95h.08v.21c0,.43,0,.85-.02,1.28,0,.98-.02,2.03,.04,3.03,.04,.74,.25,1.47,.56,2.05,.25,.44,.67,.71,1.12,.71h.02c.48,0,.95-.29,1.22-.79,.18-.31,.29-.6,.31-.87l.14-1.14c.29-2.67,.6-5.43,.41-8.18Z"/><path class="cls-6" d="M140.91,312.4c-.09-1.58-.27-3.21-.42-4.77l-.11-1.18c-.21-1.95-.58-3.48-1.18-4.83-.35-.72-.87-1.2-1.49-1.32-.61-.14-1.28,.1-1.88,.64-.33,.31-.61,.68-.85,1.02-.44,.76-.83,1.49-1.14,2.2-.29,.62-.54,1.28-.81,1.95-.11,.31-.23,.62-.36,.93l-.16,.43-.21-.41c-.19-.33-.35-.64-.52-.96-.37-.72-.71-1.4-1.12-2.03-.7-1.05-1.26-1.76-1.88-2.32-.37-.33-.79-.51-1.2-.51-.08,0-.18,.02-.26,.02-.5,.09-.96,.44-1.26,.98-.35,.64-.6,1.33-.73,1.99-.56,2.96-1.08,5.88-1.55,8.72-.11,.64-.11,1.38,0,2.17,.1,.79,.71,1.37,1.49,1.39,.76,.04,1.37-.46,1.6-1.26,.11-.43,.16-.89,.21-1.33,.14-1.38,.27-2.73,.42-4.08,.1-.99,.2-1.95,.29-2.92,.02-.27,.08-.54,.11-.79l.1-.76,.29,.26c.25,.21,.36,.42,.44,.61,.17,.39,.35,.79,.52,1.2,.33,.78,.66,1.59,1.03,2.38,.33,.69,.66,1.43,1.1,2.05,.39,.54,.93,.83,1.51,.81,.58-.04,1.12-.39,1.47-.98,.27-.44,.44-.97,.64-1.47l.02-.06c.31-.87,.62-1.74,.93-2.63,.18-.51,.35-1.01,.53-1.51,.06-.14,.11-.27,.17-.39l.25-.58,.19,.43c.14,.27,.16,.52,.16,.75v1.26c-.02,.89-.04,1.8,.02,2.68,.11,1.7,.29,3.09,.54,4.39,.17,.83,.87,1.2,1.47,1.18,.69-.02,1.26-.5,1.43-1.26,.18-.71,.26-1.45,.19-2.11Z"/><path class="cls-6" d="M155.33,305.32c-.5-2.96-2.67-4.64-5.66-4.41-1.18,.09-2.17,.44-3.09,1.08l-.17,.11-.12-.16c-.04-.06-.07-.11-.09-.15-.06-.08-.1-.14-.14-.18-.27-.25-.6-.39-.91-.39-.11,0-.23,.02-.33,.06-.42,.14-.71,.48-.81,.97-.07,.31-.07,.64-.06,.96,.02,1.3,.14,2.59,.26,3.87,.14,1.35,.27,2.74,.29,4.14,0,.77-.06,1.56-.11,2.34-.02,.39-.04,.79-.06,1.18-.04,.62-.04,1.13,.41,1.35l.06,.06c.19,.23,.68,.43,1.2,.33,.39-.06,.91-.29,1.24-1.06,.15-.35,.15-.81,.17-1.23v-.18c.02-.42-.02-1.16-.04-1.64l-.04-.48h.23c.31,0,.61,0,.94,.02,.62,.04,1.26,.06,1.76-.02,3.48-.6,5.62-3.36,5.08-6.57Zm-4.27,2.42c-.79,.76-1.78,1.1-3.15,1.1-.14,0-.27,0-.43-.02h-.19v-.21c0-1.3,.27-2.36,.83-3.31,.5-.83,2.01-1.33,2.86-.94,.33,.14,.64,.48,.76,.85,.33,.91,.1,1.78-.68,2.53Z"/><path class="cls-6" d="M168.94,312.53c-.62-.34-1.2-.71-1.82-1.1-.27-.17-.56-.35-.83-.52l-.29-.18,.29-.19c.21-.11,.4-.25,.6-.36,.39-.23,.75-.46,1.08-.72,1.41-1.08,1.94-2.45,1.6-4.06-.36-1.72-1.47-2.86-3.17-3.27-1.6-.39-3.13-.31-4.53,.25-.11,.04-.44,.16-.73,.06-.31-.11-.58-.17-.79-.17-.19,0-.36,.06-.5,.14-.29,.15-.48,.52-.6,1.08-.78,4.08-1.03,7.77-.76,11.25,.06,.91,.58,1.51,1.31,1.53,.78,.02,1.28-.54,1.39-1.47,.08-.53,.12-1.06,.18-1.63l.11-1.12,.27,.14c.1,.06,.19,.09,.27,.14,.16,.07,.29,.14,.41,.21,.43,.23,.83,.48,1.24,.73,.77,.48,1.56,.97,2.35,1.43,.6,.35,1.22,.7,1.86,.87,.87,.25,1.76-.21,2.05-1.06,.33-1.01-.37-1.63-1.01-1.97Zm-7.04-4.46l-.27,.04,.02-.27c.04-.23,.04-.48,.02-.72,0-.71-.02-1.45,.77-1.99,1.01-.66,2.15-.77,3.42-.35,.41,.14,.66,.41,.7,.73,.06,.37-.14,.76-.53,1.01-1.18,.83-2.53,1.33-4.14,1.55Z"/><path class="cls-6" d="M180.88,313.02c-.27,.02-.54,.08-.81,.16-.21,.08-.44,.14-.66,.17-.89,.14-1.68,.23-2.42,.27-.18,.02-.35-.11-.43-.19-.08-.08-.23-.21-.23-.39-.04-.54-.04-1.1-.04-1.65v-.77h.21c.37-.02,.73-.04,1.1-.06,.89-.04,1.74-.08,2.59-.16,.41-.04,.87-.17,1.31-.39,.37-.17,.78-.54,.73-1.18-.06-.54-.39-.93-.91-1.05-.6-.14-1.3-.17-2.01-.11-.56,.06-1.14,.17-1.74,.29-.27,.06-.54,.11-.83,.15l-.25,.04v-.95c0-.51,0-.98,.02-1.47,0-.51,0-.76,.17-.93,.18-.16,.43-.16,.91-.14l.5,.04c.79,.04,1.6,.08,2.4,.04,1.26-.07,2.09-.79,2.05-1.76,0-.43-.19-.83-.52-1.12-.37-.33-.87-.53-1.45-.53h-.16c-1.21,.08-2.45,.26-3.63,.43l-.85,.11c-.29,.04-.61,.19-.87,.33-.79,.45-1.08,.97-.93,1.7,.02,.16,0,.33-.04,.48v.09c-.1,.54-.21,1.1-.31,1.66-.19,1.16-.42,2.36-.58,3.56-.21,1.41-.39,3.06,.06,4.66,.35,1.26,1.1,2.01,2.24,2.24,1.95,.41,3.77,.19,5.41-.61,.36-.18,.71-.45,1.01-.76,.44-.48,.56-1.01,.31-1.53-.31-.66-.93-.76-1.37-.72Z"/><path class="cls-6" d="M195.2,311.86c-.44-1.84-1.68-3.14-3.77-3.96-.73-.31-1.45-.73-2.13-1.14l-.42-.27c-.27-.16-.41-.37-.41-.6,0-.25,.15-.46,.42-.62,.46-.27,1.03-.56,1.6-.68,1.26-.29,2.42,.1,3.19,.41,.31,.14,.56,.14,.69,.04,.2-.14,.23-.42,.21-.66-.02-.33-.11-.68-.29-.95-.43-.71-1.1-1.18-1.99-1.39-2.01-.46-3.84-.04-5.43,1.26-.81,.68-1.29,1.57-1.33,2.52-.06,.95,.33,1.91,1.08,2.67,1.08,1.1,2.26,1.84,3.61,2.24,.66,.19,1.33,.5,1.66,1.31l.1,.21-.64,.17c-.77,.23-1.48,.04-2.18-.15-.17-.06-.35-.1-.52-.14-.19-.06-.39-.08-.56-.08-.68,0-1.23,.29-1.55,.81-.39,.66-.23,1.53,.39,2.2,.58,.64,1.53,1.39,2.74,1.33,1.35-.06,2.49-.23,3.44-.56,1.7-.58,2.52-2.15,2.07-3.98Z"/><path class="cls-6" d="M202.19,305.05c-.04-.69-.16-1.29-.33-1.82-.21-.69-.71-1.1-1.45-1.12-.69-.04-1.31,.39-1.55,1.08-.17,.52-.29,1.1-.35,1.7-.07,.97-.11,1.94-.15,2.9-.02,.31-.04,.64-.04,.95h.08v.21c0,.43,0,.85-.02,1.28,0,.98-.02,2.03,.04,3.03,.04,.74,.25,1.47,.56,2.05,.25,.44,.67,.71,1.12,.71h.02c.48,0,.95-.29,1.22-.79,.18-.31,.29-.6,.31-.87l.14-1.14c.29-2.67,.6-5.43,.41-8.18Z"/><path class="cls-6" d="M212.76,302.11c-.09-.02-.19-.02-.31-.02-.19,0-.41,.02-.62,.06l-.19,.02c-2.99,.39-4.97,2.07-6.03,5.14-.64,1.84-.43,4.14,.54,5.84,.87,1.51,2.3,2.52,4.12,2.88l.06,.02c.29,.06,.58,.11,.87,.16,2.01,.23,3.59-.35,4.83-1.82l.39-.43c.31-.36,.64-.76,.95-1.12,.87-1.05,1.35-2.34,1.51-4.1-.25-4.37-2.63-5.8-6.11-6.63Zm2.59,6.94c-.08,.18-.16,.35-.23,.54-.19,.43-.39,.85-.64,1.28-.18,.29-.41,.52-.62,.76-.1,.1-.19,.19-.27,.29-.54,.58-1.28,.91-2.07,.91-.19,0-.37-.02-.56-.06-1.03-.19-1.85-.91-2.22-1.9-.54-1.51-.29-2.94,.78-4.52,.68-1.03,1.43-1.2,2.55-.62,.42,.21,.87,.43,1.43,.64,1.22,.5,1.72,1.18,1.88,2.57v.06l-.02,.06Z"/><path class="cls-6" d="M235.63,302.69c-.16-.73-.68-1.26-1.35-1.33-.73-.09-1.39,.31-1.66,.99-.21,.54-.35,1.12-.37,1.66-.08,1.49-.11,2.99-.15,4.46-.02,.6-.04,1.2-.06,1.8,0,.16-.02,.31-.02,.46l-.02,.35-.5,.19-.95-1.23c-.64-.81-1.26-1.6-1.88-2.42-.35-.46-.7-.95-1.06-1.41-.62-.83-1.26-1.68-1.92-2.49-.27-.36-.64-.68-1.04-.91-.27-.16-.58-.26-.87-.26-.18,0-.35,.04-.52,.1-.47,.16-.83,.52-1.05,1.03-.11,.31-.19,.6-.21,.87-.27,3.11-.17,6.44,.31,10.46,.04,.29,.15,.61,.34,.93,.21,.34,.54,.54,.85,.52,.33-.02,.62-.25,.81-.62,.14-.29,.23-.62,.23-.89,.08-1.62,.14-3.27,.19-4.85l.04-1.28c.02-.14,0-.29,0-.43v-.64l.35,.25c.27,.21,.44,.44,.58,.66l.09,.11c.27,.39,.54,.8,.83,1.18,.66,.95,1.35,1.93,2.11,2.8,.64,.76,1.62,1.82,2.78,2.47,1.12,.64,2.09,.78,2.8,.39,.71-.41,1.12-1.33,1.18-2.65,.09-2.49,.14-5.03,.19-7.48l.02-1.59c.02-.42-.02-.83-.09-1.22Z"/><path class="cls-6" d="M246.6,313.02c-.27,.02-.54,.08-.81,.16-.21,.08-.44,.14-.66,.17-.89,.14-1.68,.23-2.42,.27-.18,.02-.35-.11-.43-.19-.08-.08-.23-.21-.23-.39-.04-.54-.04-1.1-.04-1.65v-.77h.21c.37-.02,.73-.04,1.1-.06,.89-.04,1.74-.08,2.59-.16,.41-.04,.87-.17,1.31-.39,.37-.17,.78-.54,.73-1.18-.06-.54-.39-.93-.91-1.05-.6-.14-1.3-.17-2.01-.11-.56,.06-1.14,.17-1.74,.29-.27,.06-.54,.11-.83,.15l-.25,.04v-.95c0-.51,0-.98,.02-1.47,0-.51,0-.76,.17-.93,.18-.16,.43-.16,.91-.14l.5,.04c.79,.04,1.6,.08,2.4,.04,1.26-.07,2.09-.79,2.05-1.76,0-.43-.19-.83-.52-1.12-.37-.33-.87-.53-1.45-.53h-.16c-1.21,.08-2.45,.26-3.63,.43l-.85,.11c-.29,.04-.61,.19-.87,.33-.79,.45-1.08,.97-.93,1.7,.02,.16,0,.33-.04,.48v.09c-.1,.54-.21,1.1-.31,1.66-.19,1.16-.42,2.36-.58,3.56-.21,1.41-.39,3.06,.06,4.66,.35,1.26,1.1,2.01,2.24,2.24,1.95,.41,3.77,.19,5.41-.61,.36-.18,.71-.45,1.01-.76,.44-.48,.56-1.01,.31-1.53-.31-.66-.93-.76-1.37-.72Z"/><path class="cls-6" d="M260.92,311.86c-.44-1.84-1.68-3.14-3.77-3.96-.73-.31-1.45-.73-2.13-1.14l-.42-.27c-.27-.16-.41-.37-.41-.6,0-.25,.15-.46,.42-.62,.46-.27,1.03-.56,1.6-.68,1.26-.29,2.42,.1,3.19,.41,.31,.14,.56,.14,.69,.04,.2-.14,.23-.42,.21-.66-.02-.33-.11-.68-.29-.95-.43-.71-1.1-1.18-1.99-1.39-2.01-.46-3.84-.04-5.43,1.26-.81,.68-1.29,1.57-1.33,2.52-.06,.95,.33,1.91,1.08,2.67,1.08,1.1,2.26,1.84,3.61,2.24,.66,.19,1.33,.5,1.66,1.31l.1,.21-.64,.17c-.77,.23-1.48,.04-2.18-.15-.17-.06-.35-.1-.52-.14-.19-.06-.39-.08-.56-.08-.68,0-1.23,.29-1.55,.81-.39,.66-.23,1.53,.39,2.2,.58,.64,1.53,1.39,2.74,1.33,1.35-.06,2.49-.23,3.44-.56,1.7-.58,2.52-2.15,2.07-3.98Z"/></svg>