<?xml version="1.0" encoding="UTF-8"?><svg id="Layer_1" xmlns="http://www.w3.org/2000/svg" viewBox="0 0 269.9 143.36"><defs><style>.cls-1{fill:#fff;}</style></defs><path class="cls-1" d="M34.63,74.47c-1.53-8.98-8.1-14.09-17.21-13.39-3.58,.3-6.58,1.35-9.4,3.29l-.53,.35-.35-.47c-.12-.18-.23-.35-.3-.47-.18-.23-.29-.41-.41-.53-.82-.76-1.82-1.17-2.76-1.17-.35,0-.7,.06-.99,.18-1.29,.41-2.18,1.47-2.47,2.93-.23,.94-.23,1.94-.18,2.94,.06,3.94,.41,7.87,.77,11.75,.41,4.11,.82,8.34,.88,12.57,0,2.35-.18,4.76-.35,7.1-.06,1.18-.11,2.41-.18,3.58-.11,1.88-.11,3.41,1.23,4.11l.18,.18c.59,.7,2.06,1.29,3.64,1,1.18-.18,2.76-.88,3.76-3.23,.47-1.06,.47-2.47,.53-3.76v-.53c.06-1.29-.06-3.52-.11-4.99l-.12-1.47h.71c.94,0,1.88,0,2.88,.06,1.88,.12,3.82,.18,5.34-.06,10.57-1.82,17.09-10.22,15.45-19.97Zm-12.98,7.34c-2.41,2.29-5.41,3.34-9.57,3.34-.41,0-.82,0-1.29-.06h-.59v-.65c0-3.93,.82-7.17,2.53-10.04,1.53-2.53,6.11-4.05,8.69-2.88,.99,.41,1.94,1.47,2.29,2.58,.99,2.76,.29,5.41-2.06,7.7Z"/><path class="cls-1" d="M44.72,71c-.12-1.53-.23-3.17-.94-4.46-.47-.94-1.82-2-2.82-2s-2.17,1.06-2.94,1.94c-.53,.7-.7,1.82-.82,2.82-.53,5.81-.99,24.37-.88,27.78,0,1.47,.23,2.94,.59,4.35,.65,2.23,2.23,3.52,4.05,3.58,1.82,.06,3.64-1.12,4.23-3.35,.59-2.53,1.06-5.11,.94-7.69-.29-7.64-.88-15.33-1.41-22.96Z"/><path class="cls-1" d="M75.61,96.73c-.88-4.05-1.53-8.22-2.41-12.33-.3-1.29-.65-2.99-1.59-3.76-2.82-2.17-5.93-4.05-9.86-3.41-6.87,1.23-13.57,8.75-14.16,16.09-.53,6.76,4.87,11.45,11.57,9.86,1.76-.47,3.41-1.47,5.05-2.29,.59-.29,1.06-.76,1.65-1.17,.29,.41,.53,.65,.7,.94,1.94,2.94,4.46,4.05,6.81,3.06,2.29-1,3-3.47,2.23-6.99Zm-17.03-2.06c-.65,.23-1.59,.29-2.17,0-.35-.18-.35-1.41-.12-1.99,1.29-3.64,3.35-6.58,7.28-8.22,.71,4.52-1.41,8.81-4.99,10.22Z"/><path class="cls-1" d="M102.26,83.1c-3.29-4.41-8.4-5.11-12.86-1.94-1.29,.94-2.47,2.05-3.82,3.23-.23-.47-.35-.77-.47-1.11-.53-1.82-1.35-3.53-3.58-3.47-2.35,.12-3.06,2.06-3.23,3.94-.41,5.4-.82,10.81-.94,16.21-.11,2.99,1.88,5.05,4.46,5.34s4.82-1.35,5.52-4.34c.94-4.17,3.23-7.64,5.82-10.93,.41-.53,.99-.88,1.82-1.64,.29,1.53,.47,2.52,.59,3.58,.41,2.76,.59,5.64,1.29,8.4,.59,2.35,2.58,3.52,4.64,3.46,1.88-.11,3.7-1.53,4.05-3.88,.94-5.99,.41-11.81-3.29-16.85Z"/><path class="cls-1" d="M130.57,80.05c-2.29-2.35-5.11-3.88-8.34-4.46-4.7-.88-8.98,1-11.63,4.94-1.99,3.05-2.82,6.46-3.11,10.04-.76,8.57,5.17,15.74,15.98,14.63,1.53-.12,3.34-1.18,4.46-2.29,2.05-2.17,1.35-4.76-1.47-5.64-1.94-.65-4.05-.7-6.05-1.06-1.06-.23-2.05-.58-3.11-.94,3.64-.65,7.16-.88,10.33-2,6.05-2.11,7.4-8.57,2.94-13.21Zm-5.23,5.64c-2.64,.29-5.34,.59-8.28,.88,.47-1.76,1.23-3.11,2.99-3.64,1.99-.59,4.46,.41,5.99,2.46-.35,.18-.53,.3-.71,.3Z"/><path class="cls-1" d="M156.99,98.31c-.7-1.82-2.23-2.41-4.05-2.23-.94,.06-1.88,.29-2.76,.41-1.47,.17-2.64-.41-2.88-1.88-.41-2.35-.59-4.7-.89-7.11,2.11,0,3.76,.12,5.35,0,2.17-.17,3.82-1.82,3.99-3.82,.18-1.99-1.17-3.88-3.34-4.4-1.35-.35-2.76-.47-4.11-.47-1.23-.06-1.64-.53-1.64-1.77,0-1.64-.06-3.34-.3-4.99-.29-2.41-1.41-3.58-2.99-3.64-1.65,0-2.7,1.17-3.17,3.58-.23,1.35-.53,2.76-.59,4.11-.11,1.58-.82,2.23-2.23,2.82-1.11,.47-2.23,1.76-2.58,2.88-.53,1.58,.65,2.82,2.11,3.41,1.17,.47,1.41,1.17,1.41,2.29,0,2.41,.12,4.82,.35,7.22,.35,3.41,1.94,6.17,4.7,8.28,3.41,2.58,9.4,2.53,12.33-.23,1.29-1.23,1.99-2.7,1.29-4.46Z"/><path class="cls-1" d="M186.76,96.73c-.88-4.05-1.53-8.22-2.41-12.33-.3-1.29-.65-2.99-1.59-3.76-2.82-2.17-5.93-4.05-9.86-3.41-6.87,1.23-13.57,8.75-14.16,16.09-.53,6.76,4.87,11.45,11.57,9.86,1.76-.47,3.41-1.47,5.05-2.29,.59-.29,1.06-.76,1.65-1.17,.29,.41,.53,.65,.7,.94,1.94,2.94,4.46,4.05,6.81,3.06,2.29-1,3-3.47,2.23-6.99Zm-17.03-2.06c-.65,.23-1.59,.29-2.17,0-.35-.18-.35-1.41-.12-1.99,1.29-3.64,3.35-6.58,7.28-8.22,.71,4.52-1.41,8.81-4.99,10.22Z"/><path class="cls-1" d="M214.88,95.91c-2.7-.06-5.46-.23-8.17,0-3.34,.35-4.93,3.05-4.05,6.28,.82,3.17,3.06,4.82,6.17,5.29,2.41,.35,4.82,.59,7.22,.59,7.46,0,13.86-5.11,15.68-12.39,.88-3.64,.06-6.88-2.64-9.4-1.47-1.41-1.41-2.23-.47-3.88,3.35-5.52,1.47-13.21-4.11-15.21-6.22-2.23-12.51-1.29-18.15,2.29-1.88,1.17-2.94,3.23-2.7,5.64,.18,2.06,1.88,3.06,3.41,1.88,3.29-2.58,7.17-2.94,11.04-2.99,1.06-.06,2.06,.65,3.05,1-.41,1.17-.47,2.76-1.29,3.46-1.82,1.47-3.93,2.53-5.99,3.64-2.82,1.53-4.11,3.58-3.64,6.11,.47,2.53,2.41,3.99,5.7,4.34,1.29,.12,2.58,.12,4.4,.23-1.35,2.7-3.23,3.17-5.46,3.11Z"/><path class="cls-1" d="M263.5,69.83c-4.05-3.93-9.57-5.93-15.51-5.76l-.53,.06-.12-.35c-.65,.11-1.23,.23-1.88,.35-1.82,.41-3.7,.82-5.46,1.35-3.29,1.06-3.88,1.94-3.99,5.52-.06,3.35-.12,6.76-.12,10.16-.11,4.93-.18,9.86-.29,14.85,0,1.23-.47,2.65-1.18,3.82-.82,1.41-1.11,2.94-.76,4.29,.29,1.11,.99,2.05,2.05,2.64,1.65,.94,3.65,1.47,5.35,1.35,7.63-.35,14.8-2.88,21.2-7.64,5.05-3.7,7.64-8.75,7.64-15.15,0-5.93-2.35-11.57-6.4-15.51Zm-8.57,21.67c-1.82,1.11-3.7,2.06-5.76,3.06-.94,.47-1.94,.94-2.94,1.46l-.88,.41-1.06-23.61,.76,.12c.53,.06,1.12,.11,1.65,.18,2.7,.35,5.46,.65,7.93,2.17,2.82,1.7,4.53,4.76,4.58,8.16,0,3.35-1.59,6.34-4.29,8.05Z"/><path class="cls-1" d="M18.81,129.94c-1.33-1.3-3.15-1.95-5.1-1.9l-.17,.02-.04-.11c-.21,.04-.4,.08-.61,.11-.6,.14-1.22,.27-1.8,.44-1.08,.35-1.28,.64-1.32,1.82-.02,1.1-.04,2.22-.04,3.34-.04,1.63-.06,3.25-.1,4.89,0,.41-.15,.87-.39,1.26-.27,.47-.37,.97-.25,1.41,.09,.37,.33,.68,.68,.87,.54,.31,1.2,.48,1.76,.45,2.52-.12,4.88-.95,6.98-2.52,1.66-1.22,2.52-2.88,2.52-4.98,0-1.95-.78-3.81-2.11-5.1Zm-2.82,7.13c-.6,.37-1.22,.68-1.89,1.01-.31,.16-.64,.31-.97,.48l-.29,.14-.35-7.77,.26,.04c.17,.02,.36,.04,.54,.06,.89,.11,1.8,.21,2.61,.71,.93,.56,1.48,1.57,1.51,2.69,0,1.1-.52,2.09-1.41,2.65Z"/><path class="cls-1" d="M27.78,131.2c-.04-.69-.16-1.29-.33-1.82-.21-.69-.71-1.1-1.45-1.12-.69-.04-1.31,.39-1.55,1.08-.17,.52-.29,1.1-.35,1.7-.07,.97-.11,1.94-.15,2.9-.02,.31-.04,.64-.04,.95h.08v.21c0,.43,0,.85-.02,1.28,0,.98-.02,2.03,.04,3.03,.04,.74,.25,1.47,.56,2.05,.25,.44,.67,.71,1.12,.71h.02c.48,0,.95-.29,1.22-.79,.18-.31,.29-.6,.31-.87l.14-1.14c.29-2.67,.6-5.43,.41-8.18Z"/><path class="cls-1" d="M40.49,138.01c-.44-1.84-1.68-3.14-3.77-3.96-.73-.31-1.45-.73-2.13-1.14l-.42-.27c-.27-.16-.41-.37-.41-.6,0-.25,.15-.46,.42-.62,.46-.27,1.03-.56,1.6-.68,1.26-.29,2.42,.1,3.19,.41,.31,.14,.56,.14,.69,.04,.2-.14,.23-.42,.21-.66-.02-.33-.11-.68-.29-.95-.43-.71-1.1-1.18-1.99-1.39-2.01-.46-3.84-.04-5.43,1.26-.81,.68-1.29,1.57-1.33,2.52-.06,.95,.33,1.91,1.08,2.67,1.08,1.1,2.26,1.84,3.61,2.24,.66,.19,1.33,.5,1.66,1.31l.1,.21-.64,.17c-.77,.23-1.48,.04-2.18-.15-.17-.06-.35-.1-.52-.14-.19-.06-.39-.08-.56-.08-.68,0-1.23,.29-1.55,.81-.39,.66-.23,1.53,.39,2.2,.58,.64,1.53,1.39,2.74,1.33,1.35-.06,2.49-.23,3.44-.56,1.7-.58,2.52-2.15,2.07-3.98Z"/><path class="cls-1" d="M51.47,139.16c-.27,.02-.54,.08-.81,.16-.21,.08-.44,.14-.66,.17-.89,.14-1.68,.23-2.42,.27-.18,.02-.35-.11-.43-.19-.08-.08-.23-.21-.23-.39-.04-.54-.04-1.1-.04-1.65v-.77h.21c.37-.02,.73-.04,1.1-.06,.89-.04,1.74-.08,2.59-.16,.41-.04,.87-.17,1.31-.39,.37-.17,.78-.54,.73-1.18-.06-.54-.39-.93-.91-1.05-.6-.14-1.3-.17-2.01-.11-.56,.06-1.14,.17-1.74,.29-.27,.06-.54,.11-.83,.15l-.25,.04v-.95c0-.51,0-.98,.02-1.47,0-.51,0-.76,.17-.93,.18-.16,.43-.16,.91-.14l.5,.04c.79,.04,1.6,.08,2.4,.04,1.26-.07,2.09-.79,2.05-1.76,0-.43-.19-.83-.52-1.12-.37-.33-.87-.53-1.45-.53h-.16c-1.21,.08-2.45,.26-3.63,.43l-.85,.11c-.29,.04-.61,.19-.87,.33-.79,.45-1.08,.97-.93,1.7,.02,.16,0,.33-.04,.48v.09c-.1,.54-.21,1.1-.31,1.66-.19,1.16-.42,2.36-.58,3.56-.21,1.41-.39,3.06,.06,4.66,.35,1.26,1.1,2.01,2.24,2.24,1.95,.41,3.77,.19,5.41-.61,.36-.18,.71-.45,1.01-.76,.44-.48,.56-1.01,.31-1.53-.31-.66-.93-.76-1.37-.72Z"/><path class="cls-1" d="M59.76,126.41c.45,.11,.7-.16,.93-.51,.43-.64,1.05-.79,1.74-.46,.48,.23,.96,.48,1.45,.7,.66,.31,1.33,.36,2.01,.17,1.47-.39,2.15-1.9,1.35-3.02-.27-.41-.66-.64-1.16-.48-.51,.14-.71,.53-.7,1.03v.48c-.29-.08-.5-.1-.69-.17-.6-.27-1.2-.6-1.8-.85-1.16-.48-2.71-.06-3.41,.97-.23,.33-.34,.79-.36,1.2-.04,.44,.17,.83,.64,.95Zm10.56,2.94c-.16-.83-.78-1.41-1.53-1.51-.8-.09-1.57,.31-1.9,1.13-.21,.54-.35,1.16-.37,1.74-.09,2.08-.15,4.17-.21,6.24,0,.23-.02,.47-.04,.68-.08,.04-.16,.06-.23,.1-.91-1.18-1.82-2.36-2.71-3.54-1.01-1.3-1.97-2.63-2.98-3.91-.31-.39-.69-.71-1.1-.95-1.06-.62-2.3-.17-2.74,.97-.11,.29-.21,.61-.23,.93-.31,3.52-.09,7.02,.31,10.52,.04,.35,.19,.69,.39,1.01,.54,.87,1.57,.81,2.01-.11,.16-.31,.25-.66,.27-.99,.09-2.03,.16-4.08,.23-6.1v-.66c.31,.23,.46,.48,.64,.73,.96,1.33,1.88,2.74,2.96,4.01,.81,.94,1.76,1.89,2.84,2.51,2.46,1.39,4.18,.37,4.29-2.45,.1-3.02,.16-6.03,.21-9.07,0-.41-.02-.85-.11-1.26Z"/><path class="cls-1" d="M80.93,128.26c-.09-.02-.19-.02-.31-.02-.19,0-.41,.02-.62,.06l-.19,.02c-2.99,.39-4.97,2.07-6.03,5.14-.64,1.84-.43,4.14,.54,5.84,.87,1.51,2.3,2.52,4.12,2.88l.06,.02c.29,.06,.58,.11,.87,.16,2.01,.23,3.59-.35,4.83-1.82l.39-.43c.31-.36,.64-.76,.95-1.12,.87-1.05,1.35-2.34,1.51-4.1-.25-4.37-2.63-5.8-6.11-6.63Zm2.59,6.94c-.08,.18-.16,.35-.23,.54-.19,.43-.39,.85-.64,1.28-.18,.29-.41,.52-.62,.76-.1,.1-.19,.19-.27,.29-.54,.58-1.28,.91-2.07,.91-.19,0-.37-.02-.56-.06-1.03-.19-1.85-.91-2.22-1.9-.54-1.51-.29-2.94,.78-4.52,.68-1.03,1.43-1.2,2.55-.62,.42,.21,.87,.43,1.43,.64,1.22,.5,1.72,1.18,1.88,2.57v.06l-.02,.06Z"/><path class="cls-1" d="M105,139.16c-.27,.02-.54,.08-.81,.16-.21,.08-.44,.14-.66,.17-.89,.14-1.68,.23-2.42,.27-.18,.02-.35-.11-.43-.19-.08-.08-.23-.21-.23-.39-.04-.54-.04-1.1-.04-1.65v-.77h.21c.37-.02,.73-.04,1.1-.06,.89-.04,1.74-.08,2.59-.16,.41-.04,.87-.17,1.31-.39,.37-.17,.78-.54,.73-1.18-.06-.54-.39-.93-.91-1.05-.6-.14-1.3-.17-2.01-.11-.56,.06-1.14,.17-1.74,.29-.27,.06-.54,.11-.83,.15l-.25,.04v-.95c0-.51,0-.98,.02-1.47,0-.51,0-.76,.17-.93,.18-.16,.43-.16,.91-.14l.5,.04c.79,.04,1.6,.08,2.4,.04,1.26-.07,2.09-.79,2.05-1.76,0-.43-.19-.83-.52-1.12-.37-.33-.87-.53-1.45-.53h-.16c-1.21,.08-2.45,.26-3.63,.43l-.85,.11c-.29,.04-.61,.19-.87,.33-.79,.45-1.08,.97-.93,1.7,.02,.16,0,.33-.04,.48v.09c-.1,.54-.21,1.1-.31,1.66-.19,1.16-.42,2.36-.58,3.56-.21,1.41-.39,3.06,.06,4.66,.35,1.26,1.1,2.01,2.24,2.24,1.95,.41,3.77,.19,5.41-.61,.36-.18,.71-.45,1.01-.76,.44-.48,.56-1.01,.31-1.53-.31-.66-.93-.76-1.37-.72Z"/><path class="cls-1" d="M120.64,131.2c-.04-.69-.16-1.29-.33-1.82-.21-.69-.71-1.1-1.45-1.12-.69-.04-1.31,.39-1.55,1.08-.17,.52-.29,1.1-.35,1.7-.07,.97-.11,1.94-.15,2.9-.02,.31-.04,.64-.04,.95h.08v.21c0,.43,0,.85-.02,1.28,0,.98-.02,2.03,.04,3.03,.04,.74,.25,1.47,.56,2.05,.25,.44,.67,.71,1.12,.71h.02c.48,0,.95-.29,1.22-.79,.18-.31,.29-.6,.31-.87l.14-1.14c.29-2.67,.6-5.43,.41-8.18Z"/><path class="cls-1" d="M140.91,138.54c-.09-1.58-.27-3.21-.42-4.77l-.11-1.18c-.21-1.95-.58-3.48-1.18-4.83-.35-.72-.87-1.2-1.49-1.32-.61-.14-1.28,.1-1.88,.64-.33,.31-.61,.68-.85,1.02-.44,.76-.83,1.49-1.14,2.2-.29,.62-.54,1.28-.81,1.95-.11,.31-.23,.62-.36,.93l-.16,.43-.21-.41c-.19-.33-.35-.64-.52-.96-.37-.72-.71-1.4-1.12-2.03-.7-1.05-1.26-1.76-1.88-2.32-.37-.33-.79-.51-1.2-.51-.08,0-.18,.02-.26,.02-.5,.09-.96,.44-1.26,.98-.35,.64-.6,1.33-.73,1.99-.56,2.96-1.08,5.88-1.55,8.72-.11,.64-.11,1.38,0,2.17,.1,.79,.71,1.37,1.49,1.39,.76,.04,1.37-.46,1.6-1.26,.11-.43,.16-.89,.21-1.33,.14-1.38,.27-2.73,.42-4.08,.1-.99,.2-1.95,.29-2.92,.02-.27,.08-.54,.11-.79l.1-.76,.29,.26c.25,.21,.36,.42,.44,.61,.17,.39,.35,.79,.52,1.2,.33,.78,.66,1.59,1.03,2.38,.33,.69,.66,1.43,1.1,2.05,.39,.54,.93,.83,1.51,.81,.58-.04,1.12-.39,1.47-.98,.27-.44,.44-.97,.64-1.47l.02-.06c.31-.87,.62-1.74,.93-2.63,.18-.51,.35-1.01,.53-1.51,.06-.14,.11-.27,.17-.39l.25-.58,.19,.43c.14,.27,.16,.52,.16,.75v1.26c-.02,.89-.04,1.8,.02,2.68,.11,1.7,.29,3.09,.54,4.39,.17,.83,.87,1.2,1.47,1.18,.69-.02,1.26-.5,1.43-1.26,.18-.71,.26-1.45,.19-2.11Z"/><path class="cls-1" d="M155.33,131.47c-.5-2.96-2.67-4.64-5.66-4.41-1.18,.09-2.17,.44-3.09,1.08l-.17,.11-.12-.16c-.04-.06-.07-.11-.09-.15-.06-.08-.1-.14-.14-.18-.27-.25-.6-.39-.91-.39-.11,0-.23,.02-.33,.06-.42,.14-.71,.48-.81,.97-.07,.31-.07,.64-.06,.96,.02,1.3,.14,2.59,.26,3.87,.14,1.35,.27,2.74,.29,4.14,0,.77-.06,1.56-.11,2.34-.02,.39-.04,.79-.06,1.18-.04,.62-.04,1.13,.41,1.35l.06,.06c.19,.23,.68,.43,1.2,.33,.39-.06,.91-.29,1.24-1.06,.15-.35,.15-.81,.17-1.23v-.18c.02-.42-.02-1.16-.04-1.64l-.04-.48h.23c.31,0,.61,0,.94,.02,.62,.04,1.26,.06,1.76-.02,3.48-.6,5.62-3.36,5.08-6.57Zm-4.27,2.42c-.79,.76-1.78,1.1-3.15,1.1-.14,0-.27,0-.43-.02h-.19v-.21c0-1.3,.27-2.36,.83-3.31,.5-.83,2.01-1.33,2.86-.94,.33,.14,.64,.48,.76,.85,.33,.91,.1,1.78-.68,2.53Z"/><path class="cls-1" d="M168.94,138.68c-.62-.34-1.2-.71-1.82-1.1-.27-.17-.56-.35-.83-.52l-.29-.18,.29-.19c.21-.11,.4-.25,.6-.36,.39-.23,.75-.46,1.08-.72,1.41-1.08,1.94-2.45,1.6-4.06-.36-1.72-1.47-2.86-3.17-3.27-1.6-.39-3.13-.31-4.53,.25-.11,.04-.44,.16-.73,.06-.31-.11-.58-.17-.79-.17-.19,0-.36,.06-.5,.14-.29,.15-.48,.52-.6,1.08-.78,4.08-1.03,7.77-.76,11.25,.06,.91,.58,1.51,1.31,1.53,.78,.02,1.28-.54,1.39-1.47,.08-.53,.12-1.06,.18-1.63l.11-1.12,.27,.14c.1,.06,.19,.09,.27,.14,.16,.07,.29,.14,.41,.21,.43,.23,.83,.48,1.24,.73,.77,.48,1.56,.97,2.35,1.43,.6,.35,1.22,.7,1.86,.87,.87,.25,1.76-.21,2.05-1.06,.33-1.01-.37-1.63-1.01-1.97Zm-7.04-4.46l-.27,.04,.02-.27c.04-.23,.04-.48,.02-.72,0-.71-.02-1.45,.77-1.99,1.01-.66,2.15-.77,3.42-.35,.41,.14,.66,.41,.7,.73,.06,.37-.14,.76-.53,1.01-1.18,.83-2.53,1.33-4.14,1.55Z"/><path class="cls-1" d="M180.88,139.16c-.27,.02-.54,.08-.81,.16-.21,.08-.44,.14-.66,.17-.89,.14-1.68,.23-2.42,.27-.18,.02-.35-.11-.43-.19-.08-.08-.23-.21-.23-.39-.04-.54-.04-1.1-.04-1.65v-.77h.21c.37-.02,.73-.04,1.1-.06,.89-.04,1.74-.08,2.59-.16,.41-.04,.87-.17,1.31-.39,.37-.17,.78-.54,.73-1.18-.06-.54-.39-.93-.91-1.05-.6-.14-1.3-.17-2.01-.11-.56,.06-1.14,.17-1.74,.29-.27,.06-.54,.11-.83,.15l-.25,.04v-.95c0-.51,0-.98,.02-1.47,0-.51,0-.76,.17-.93,.18-.16,.43-.16,.91-.14l.5,.04c.79,.04,1.6,.08,2.4,.04,1.26-.07,2.09-.79,2.05-1.76,0-.43-.19-.83-.52-1.12-.37-.33-.87-.53-1.45-.53h-.16c-1.21,.08-2.45,.26-3.63,.43l-.85,.11c-.29,.04-.61,.19-.87,.33-.79,.45-1.08,.97-.93,1.7,.02,.16,0,.33-.04,.48v.09c-.1,.54-.21,1.1-.31,1.66-.19,1.16-.42,2.36-.58,3.56-.21,1.41-.39,3.06,.06,4.66,.35,1.26,1.1,2.01,2.24,2.24,1.95,.41,3.77,.19,5.41-.61,.36-.18,.71-.45,1.01-.76,.44-.48,.56-1.01,.31-1.53-.31-.66-.93-.76-1.37-.72Z"/><path class="cls-1" d="M195.2,138.01c-.44-1.84-1.68-3.14-3.77-3.96-.73-.31-1.45-.73-2.13-1.14l-.42-.27c-.27-.16-.41-.37-.41-.6,0-.25,.15-.46,.42-.62,.46-.27,1.03-.56,1.6-.68,1.26-.29,2.42,.1,3.19,.41,.31,.14,.56,.14,.69,.04,.2-.14,.23-.42,.21-.66-.02-.33-.11-.68-.29-.95-.43-.71-1.1-1.18-1.99-1.39-2.01-.46-3.84-.04-5.43,1.26-.81,.68-1.29,1.57-1.33,2.52-.06,.95,.33,1.91,1.08,2.67,1.08,1.1,2.26,1.84,3.61,2.24,.66,.19,1.33,.5,1.66,1.31l.1,.21-.64,.17c-.77,.23-1.48,.04-2.18-.15-.17-.06-.35-.1-.52-.14-.19-.06-.39-.08-.56-.08-.68,0-1.23,.29-1.55,.81-.39,.66-.23,1.53,.39,2.2,.58,.64,1.53,1.39,2.74,1.33,1.35-.06,2.49-.23,3.44-.56,1.7-.58,2.52-2.15,2.07-3.98Z"/><path class="cls-1" d="M202.19,131.2c-.04-.69-.16-1.29-.33-1.82-.21-.69-.71-1.1-1.45-1.12-.69-.04-1.31,.39-1.55,1.08-.17,.52-.29,1.1-.35,1.7-.07,.97-.11,1.94-.15,2.9-.02,.31-.04,.64-.04,.95h.08v.21c0,.43,0,.85-.02,1.28,0,.98-.02,2.03,.04,3.03,.04,.74,.25,1.47,.56,2.05,.25,.44,.67,.71,1.12,.71h.02c.48,0,.95-.29,1.22-.79,.18-.31,.29-.6,.31-.87l.14-1.14c.29-2.67,.6-5.43,.41-8.18Z"/><path class="cls-1" d="M212.76,128.26c-.09-.02-.19-.02-.31-.02-.19,0-.41,.02-.62,.06l-.19,.02c-2.99,.39-4.97,2.07-6.03,5.14-.64,1.84-.43,4.14,.54,5.84,.87,1.51,2.3,2.52,4.12,2.88l.06,.02c.29,.06,.58,.11,.87,.16,2.01,.23,3.59-.35,4.83-1.82l.39-.43c.31-.36,.64-.76,.95-1.12,.87-1.05,1.35-2.34,1.51-4.1-.25-4.37-2.63-5.8-6.11-6.63Zm2.59,6.94c-.08,.18-.16,.35-.23,.54-.19,.43-.39,.85-.64,1.28-.18,.29-.41,.52-.62,.76-.1,.1-.19,.19-.27,.29-.54,.58-1.28,.91-2.07,.91-.19,0-.37-.02-.56-.06-1.03-.19-1.85-.91-2.22-1.9-.54-1.51-.29-2.94,.78-4.52,.68-1.03,1.43-1.2,2.55-.62,.42,.21,.87,.43,1.43,.64,1.22,.5,1.72,1.18,1.88,2.57v.06l-.02,.06Z"/><path class="cls-1" d="M235.63,128.84c-.16-.73-.68-1.26-1.35-1.33-.73-.09-1.39,.31-1.66,.99-.21,.54-.35,1.12-.37,1.66-.08,1.49-.11,2.99-.15,4.46-.02,.6-.04,1.2-.06,1.8,0,.16-.02,.31-.02,.46l-.02,.35-.5,.19-.95-1.23c-.64-.81-1.26-1.6-1.88-2.42-.35-.46-.7-.95-1.06-1.41-.62-.83-1.26-1.68-1.92-2.49-.27-.36-.64-.68-1.04-.91-.27-.16-.58-.26-.87-.26-.18,0-.35,.04-.52,.1-.47,.16-.83,.52-1.05,1.03-.11,.31-.19,.6-.21,.87-.27,3.11-.17,6.44,.31,10.46,.04,.29,.15,.61,.34,.93,.21,.34,.54,.54,.85,.52,.33-.02,.62-.25,.81-.62,.14-.29,.23-.62,.23-.89,.08-1.62,.14-3.27,.19-4.85l.04-1.28c.02-.14,0-.29,0-.43v-.64l.35,.25c.27,.21,.44,.44,.58,.66l.09,.11c.27,.39,.54,.8,.83,1.18,.66,.95,1.35,1.93,2.11,2.8,.64,.76,1.62,1.82,2.78,2.47,1.12,.64,2.09,.78,2.8,.39,.71-.41,1.12-1.33,1.18-2.65,.09-2.49,.14-5.03,.19-7.48l.02-1.59c.02-.42-.02-.83-.09-1.22Z"/><path class="cls-1" d="M246.6,139.16c-.27,.02-.54,.08-.81,.16-.21,.08-.44,.14-.66,.17-.89,.14-1.68,.23-2.42,.27-.18,.02-.35-.11-.43-.19-.08-.08-.23-.21-.23-.39-.04-.54-.04-1.1-.04-1.65v-.77h.21c.37-.02,.73-.04,1.1-.06,.89-.04,1.74-.08,2.59-.16,.41-.04,.87-.17,1.31-.39,.37-.17,.78-.54,.73-1.18-.06-.54-.39-.93-.91-1.05-.6-.14-1.3-.17-2.01-.11-.56,.06-1.14,.17-1.74,.29-.27,.06-.54,.11-.83,.15l-.25,.04v-.95c0-.51,0-.98,.02-1.47,0-.51,0-.76,.17-.93,.18-.16,.43-.16,.91-.14l.5,.04c.79,.04,1.6,.08,2.4,.04,1.26-.07,2.09-.79,2.05-1.76,0-.43-.19-.83-.52-1.12-.37-.33-.87-.53-1.45-.53h-.16c-1.21,.08-2.45,.26-3.63,.43l-.85,.11c-.29,.04-.61,.19-.87,.33-.79,.45-1.08,.97-.93,1.7,.02,.16,0,.33-.04,.48v.09c-.1,.54-.21,1.1-.31,1.66-.19,1.16-.42,2.36-.58,3.56-.21,1.41-.39,3.06,.06,4.66,.35,1.26,1.1,2.01,2.24,2.24,1.95,.41,3.77,.19,5.41-.61,.36-.18,.71-.45,1.01-.76,.44-.48,.56-1.01,.31-1.53-.31-.66-.93-.76-1.37-.72Z"/><path class="cls-1" d="M260.92,138.01c-.44-1.84-1.68-3.14-3.77-3.96-.73-.31-1.45-.73-2.13-1.14l-.42-.27c-.27-.16-.41-.37-.41-.6,0-.25,.15-.46,.42-.62,.46-.27,1.03-.56,1.6-.68,1.26-.29,2.42,.1,3.19,.41,.31,.14,.56,.14,.69,.04,.2-.14,.23-.42,.21-.66-.02-.33-.11-.68-.29-.95-.43-.71-1.1-1.18-1.99-1.39-2.01-.46-3.84-.04-5.43,1.26-.81,.68-1.29,1.57-1.33,2.52-.06,.95,.33,1.91,1.08,2.67,1.08,1.1,2.26,1.84,3.61,2.24,.66,.19,1.33,.5,1.66,1.31l.1,.21-.64,.17c-.77,.23-1.48,.04-2.18-.15-.17-.06-.35-.1-.52-.14-.19-.06-.39-.08-.56-.08-.68,0-1.23,.29-1.55,.81-.39,.66-.23,1.53,.39,2.2,.58,.64,1.53,1.39,2.74,1.33,1.35-.06,2.49-.23,3.44-.56,1.7-.58,2.52-2.15,2.07-3.98Z"/></svg>